<?xml version="1.0" encoding="UTF-8"?>
<svg version="1.1" xmlns="http://www.w3.org/2000/svg" width="500" height="500">
<path d="M0 0 C-0.61206963 7.11623126 -2.02717881 13.77891618 -3.8125 20.6875 C-4.08167236 21.74678711 -4.35084473 22.80607422 -4.62817383 23.89746094 C-6.34642409 30.61029045 -8.16898849 37.28109468 -10.12109375 43.9296875 C-11.5493439 48.91904135 -12.78060748 53.95614914 -14 59 C-13.39631592 59.11174561 -12.79263184 59.22349121 -12.1706543 59.33862305 C-5.94970199 60.53078743 0.10721512 62.04395972 6.1875 63.8125 C7.09008545 64.07240723 7.9926709 64.33231445 8.92260742 64.60009766 C16.68795855 66.85963399 24.36017055 69.34777042 32 72 C30.44387812 75.86807438 28.0199346 78.05955208 24.9375 80.8125 C24.44580322 81.25263428 23.95410645 81.69276855 23.44750977 82.14624023 C19.83429318 85.3481869 16.08249631 88.31487402 12.23828125 91.23046875 C9.76869167 93.18286679 7.45116258 95.25397932 5.125 97.375 C-9.19901713 110.42328435 -9.19901713 110.42328435 -15 113 C-15 113.66 -15 114.32 -15 115 C-16.390625 116.1484375 -16.390625 116.1484375 -18.25 117.375 C-20.53419199 118.93009636 -22.34151654 120.34151654 -24.3125 122.3125 C-24.869375 122.869375 -25.42625 123.42625 -26 124 C-26.66 124 -27.32 124 -28 124 C-28 124.66 -28 125.32 -28 126 C-29.73391951 127.60634015 -31.538091 129.1375287 -33.375 130.625 C-34.37273438 131.44226563 -35.37046875 132.25953125 -36.3984375 133.1015625 C-39 135 -39 135 -41 135 C-41 135.66 -41 136.32 -41 137 C-42.71024476 138.60861731 -44.49438829 140.13938343 -46.3125 141.625 C-47.79169922 142.85089844 -47.79169922 142.85089844 -49.30078125 144.1015625 C-52 146 -52 146 -55 146 C-52.48186391 135.56580844 -49.79996046 125.23389631 -46.34106445 115.06225586 C-44.13941149 108.57483601 -42.21269695 102.01876668 -40.3125 95.4375 C-39.99216797 94.33341797 -39.67183594 93.22933594 -39.34179688 92.09179688 C-38.55960559 89.39498812 -37.77904286 86.69771961 -37 84 C-39.9962528 82.34710488 -42.72633465 81.5105399 -46.078125 80.8515625 C-47.06723877 80.65272461 -48.05635254 80.45388672 -49.07543945 80.24902344 C-50.12304443 80.0430957 -51.17064941 79.83716797 -52.25 79.625 C-74.78615465 75.07128178 -74.78615465 75.07128178 -84 72 C-84 71.01 -84 70.02 -84 69 C-79.65714286 65 -79.65714286 65 -77 65 C-77 64.34 -77 63.68 -77 63 C-75.1015625 61.2734375 -75.1015625 61.2734375 -72.625 59.375 C-71.81289062 58.74335938 -71.00078125 58.11171875 -70.1640625 57.4609375 C-68 56 -68 56 -66 56 C-66 55.34 -66 54.68 -66 54 C-65.34 54 -64.68 54 -64 54 C-64 53.34 -64 52.68 -64 52 C-62.171875 50.34375 -62.171875 50.34375 -59.75 48.5 C-58.96109375 47.8915625 -58.1721875 47.283125 -57.359375 46.65625 C-55.28862321 45.20260967 -53.2941068 44.05234257 -51 43 C-51 42.34 -51 41.68 -51 41 C-49.171875 39.34375 -49.171875 39.34375 -46.75 37.5 C-45.96109375 36.8915625 -45.1721875 36.283125 -44.359375 35.65625 C-42.28862321 34.20260967 -40.2941068 33.05234257 -38 32 C-38 31.34 -38 30.68 -38 30 C-36.19921875 28.37109375 -36.19921875 28.37109375 -33.6875 26.4375 C-28.78312073 22.62453752 -24.00442215 18.68553681 -19.25 14.6875 C-17 13 -17 13 -15 13 C-14.7834375 12.43796875 -14.566875 11.8759375 -14.34375 11.296875 C-12.54930872 8.22963235 -10.26107786 6.47339428 -7.5 4.25 C-6.5203125 3.45078125 -5.540625 2.6515625 -4.53125 1.828125 C-2 0 -2 0 0 0 Z " fill="#4E38F1" transform="translate(84,175)"/>
<path d="M0 0 C4.10032727 2.30643409 5.64884494 5.0463674 8 9 C9.01005476 10.50216648 10.03520379 11.99427958 11.07421875 13.4765625 C11.65558594 14.30696045 12.23695313 15.1373584 12.8359375 15.99291992 C13.44695312 16.86150635 14.05796875 17.73009277 14.6875 18.625 C15.31527344 19.52001221 15.94304687 20.41502441 16.58984375 21.3371582 C20.38768031 26.74113045 24.21842104 32.11490192 28.15625 37.41796875 C29.85960791 39.80339159 31.49244199 42.22073346 33.11523438 44.66137695 C33.65547241 45.47339066 34.19571045 46.28540436 34.75231934 47.12202454 C35.36992126 48.05162239 35.36992126 48.05162239 36 49 C36.01030746 48.44289841 36.02061493 47.88579681 36.03123474 47.31181335 C36.1393002 41.52066308 36.25389827 35.72966839 36.37231445 29.9387207 C36.41566313 27.7766444 36.45733825 25.61453387 36.49731445 23.45239258 C36.55501844 20.34706298 36.61871272 17.24190564 36.68359375 14.13671875 C36.70030624 13.16788254 36.71701874 12.19904633 36.73423767 11.20085144 C36.75418289 10.3001442 36.77412811 9.39943695 36.79467773 8.47143555 C36.81022202 7.67867722 36.8257663 6.88591888 36.84178162 6.06913757 C37 4 37 4 38 1 C41.04982258 -0.52491129 44.22122539 -0.14361434 47.5625 -0.125 C48.26052734 -0.12886719 48.95855469 -0.13273438 49.67773438 -0.13671875 C54.87336006 -0.12663994 54.87336006 -0.12663994 56 1 C56.09516211 3.7388842 56.12554594 6.45247941 56.11352539 9.19165039 C56.11367142 10.05011063 56.11381744 10.90857086 56.1139679 11.79304504 C56.11326847 14.64460738 56.1054747 17.49610525 56.09765625 20.34765625 C56.09579218 22.31920842 56.09436822 24.29076105 56.09336853 26.26231384 C56.08954251 31.46226267 56.07971152 36.66218375 56.06866455 41.86212158 C56.05845222 47.16393661 56.05387129 52.4657561 56.04882812 57.76757812 C56.03808933 68.17839763 56.02101191 78.58919651 56 89 C53.5872571 89.10801432 51.17937623 89.18688189 48.76538086 89.24926758 C47.74560276 89.29939373 47.74560276 89.29939373 46.70522308 89.35053253 C43.20587019 89.4183631 41.3445975 89.25435872 38.49430847 87.15046692 C36.56036566 84.77388029 35.06098227 82.35981702 33.5625 79.6875 C32.40018117 77.82915082 31.23742475 75.97107525 30.07421875 74.11328125 C29.54103027 73.21947754 29.0078418 72.32567383 28.45849609 71.40478516 C26.75543446 68.59675753 24.86770893 65.98401066 22.875 63.375 C17.36693263 55.73477753 12.22455167 47.83682751 7 40 C6.67 56.17 6.34 72.34 6 89 C-0.27 89 -6.54 89 -13 89 C-13 59.96 -13 30.92 -13 1 C-9.05778242 -0.97110879 -4.29751409 -0.44778729 0 0 Z " fill="#4E38F2" transform="translate(163,201)"/>
<path d="M0 0 C0.66 0.474375 1.32 0.94875 2 1.4375 C2 2.0975 2 2.7575 2 3.4375 C3.32 4.0975 4.64 4.7575 6 5.4375 C6 6.0975 6 6.7575 6 7.4375 C6.66 7.4375 7.32 7.4375 8 7.4375 C8.82011312 8.99601755 9.63076213 10.55951716 10.4375 12.125 C10.88996094 12.99511719 11.34242188 13.86523438 11.80859375 14.76171875 C13.95287765 19.57756948 14.13684619 23.95148198 14.125 29.1875 C14.12757813 30.33734375 14.13015625 31.4871875 14.1328125 32.671875 C14 35.4375 14 35.4375 13 36.4375 C11.58882298 36.55959924 10.17179541 36.61520872 8.75561523 36.64282227 C7.40432777 36.6727401 7.40432777 36.6727401 6.02574158 36.70326233 C5.04658279 36.71997482 4.06742401 36.73668732 3.05859375 36.75390625 C1.56248314 36.7850779 1.56248314 36.7850779 0.03614807 36.81687927 C-3.16332843 36.88248637 -6.36288982 36.94131134 -9.5625 37 C-11.72592039 37.04317462 -13.88933206 37.08678855 -16.05273438 37.13085938 C-21.36839874 37.23817903 -26.68414834 37.33992427 -32 37.4375 C-29.7423878 41.40301671 -28.25907877 43.56471359 -24 45.4375 C-20.55743404 45.91025276 -20.55743404 45.91025276 -16.9375 45.8125 C-15.12572266 45.82410156 -15.12572266 45.82410156 -13.27734375 45.8359375 C-9.79826419 45.41297431 -8.57825178 44.68826022 -6 42.4375 C-5.34 42.4375 -4.68 42.4375 -4 42.4375 C-4 41.7775 -4 41.1175 -4 40.4375 C2.01738755 41.69112241 6.52638795 44.16142407 11 48.4375 C11 49.0975 11 49.7575 11 50.4375 C10.34 50.4375 9.68 50.4375 9 50.4375 C8.773125 51.015 8.54625 51.5925 8.3125 52.1875 C5.04601219 57.78719339 -1.06992973 60.42539908 -7 62.4375 C-10.33541206 62.96503796 -13.56608982 63.01071406 -16.9375 62.9375 C-17.81269287 62.92831543 -18.68788574 62.91913086 -19.58959961 62.90966797 C-27.52882358 62.68636112 -33.40201862 60.83615425 -40 56.4375 C-40 55.7775 -40 55.1175 -40 54.4375 C-40.8353125 54.1590625 -40.8353125 54.1590625 -41.6875 53.875 C-46.39336087 50.94973513 -49.39269157 45.6612524 -51 40.4375 C-52.2376656 35.11553791 -52.16557599 29.86664961 -52 24.4375 C-51.979375 23.32375 -51.95875 22.21 -51.9375 21.0625 C-50.45244567 15.32028994 -47.42851463 10.25959101 -44 5.4375 C-43.34 5.4375 -42.68 5.4375 -42 5.4375 C-42 4.7775 -42 4.1175 -42 3.4375 C-41.34 3.4375 -40.68 3.4375 -40 3.4375 C-40 2.7775 -40 2.1175 -40 1.4375 C-38.41925436 0.61997697 -36.83528777 -0.19131997 -35.25 -1 C-33.92742187 -1.67869141 -33.92742187 -1.67869141 -32.578125 -2.37109375 C-22.01320503 -7.25336737 -9.9097613 -5.16133401 0 0 Z M-28 13.4375 C-28 14.0975 -28 14.7575 -28 15.4375 C-28.66 15.4375 -29.32 15.4375 -30 15.4375 C-30 16.0975 -30 16.7575 -30 17.4375 C-30.66 17.4375 -31.32 17.4375 -32 17.4375 C-32.33 19.0875 -32.66 20.7375 -33 22.4375 C-23.43 22.4375 -13.86 22.4375 -4 22.4375 C-6.08677488 16.17717535 -6.50282415 15.29260762 -11.7109375 12.34765625 C-17.1865572 10.17049006 -22.79680462 10.7519798 -28 13.4375 Z " fill="#4E38F1" transform="translate(282,229.5625)"/>
<path d="M0 0 C6.27 0 12.54 0 19 0 C22.9000576 9.66105638 26.794621 19.32473656 30.5 29.0625 C30.75475098 29.72185547 31.00950195 30.38121094 31.27197266 31.06054688 C32.33048674 33.87039366 33 35.96750757 33 39 C33.66 39 34.32 39 35 39 C35.22429687 37.83597656 35.44859375 36.67195313 35.6796875 35.47265625 C37.27406209 28.29797062 39.76479992 21.38752549 42.125 14.4375 C42.59807751 13.03334498 43.07073713 11.6290491 43.54296875 10.22460938 C44.68973888 6.81447716 45.8450201 3.4074038 47 0 C53.27 0 59.54 0 66 0 C64.62275833 4.82034586 63.20090763 9.55968304 61.625 14.3125 C61.22539062 15.52550781 60.82578125 16.73851562 60.4140625 17.98828125 C59.39184321 20.97941498 58.2447126 23.90148461 57.05078125 26.828125 C54.97344915 31.95843177 53.25397971 37.16988757 51.5625 42.4375 C49.40764716 49.03020674 47.15768253 55.41975632 44.1015625 61.66015625 C42.95039424 64.10536827 42.08005936 66.5753848 41.1875 69.125 C38.19824576 76.72520917 32.24206879 83.22808917 25 87 C19.39494205 89.02860884 15.19989114 89 9 89 C9 83.39 9 77.78 9 72 C11.50651042 71.31640625 14.01302083 70.6328125 16.51953125 69.94921875 C20.26295482 68.51669603 21.44921216 66.93266741 23.46484375 63.51953125 C24.31608549 57.92121876 21.85292545 53.73569583 19.5625 48.6875 C18.62064648 46.52884093 17.67924247 44.36998568 16.73828125 42.2109375 C16.26986816 41.15358398 15.80145508 40.09623047 15.31884766 39.00683594 C13.5496447 34.9732366 11.89560125 30.8976371 10.25 26.8125 C7.76778599 20.70635548 5.06609947 14.75249704 2.1640625 8.83203125 C1 6 1 6 0 0 Z " fill="#4E38F0" transform="translate(430,227)"/>
<path d="M0 0 C2.4625492 1.41404192 4.31511456 2.85086645 6 5.1484375 C6 5.8084375 6 6.4684375 6 7.1484375 C6.66 7.1484375 7.32 7.1484375 8 7.1484375 C8.66 8.4684375 9.32 9.7884375 10 11.1484375 C8.58531689 12.10969653 7.1681636 13.06732075 5.75 14.0234375 C4.96109375 14.55710938 4.1721875 15.09078125 3.359375 15.640625 C-2.12953368 19.1484375 -2.12953368 19.1484375 -6 19.1484375 C-6.7425 18.3234375 -7.485 17.4984375 -8.25 16.6484375 C-10.8408591 13.79556037 -10.8408591 13.79556037 -14.6875 13.7734375 C-17.87336008 13.94188342 -17.87336008 13.94188342 -20 15.1484375 C-20 16.7984375 -20 18.4484375 -20 20.1484375 C-19.24976563 20.31859375 -18.49953125 20.48875 -17.7265625 20.6640625 C1.5521522 25.22879595 1.5521522 25.22879595 8 32.1484375 C11.28034453 37.9482862 11.84545227 43.75540121 10.6015625 50.21875 C8.88302596 56.08855663 5.27844277 59.24575618 0 62.1484375 C-8.63592912 65.77677031 -20.85982525 65.7224814 -29.6875 62.6484375 C-34.53393721 60.30068245 -38.11393226 56.66729586 -41 52.1484375 C-41.68359375 49.8984375 -41.68359375 49.8984375 -42 48.1484375 C-41.34 48.1484375 -40.68 48.1484375 -40 48.1484375 C-40 47.4884375 -40 46.8284375 -40 46.1484375 C-38.2335343 45.1407423 -36.46166177 44.14252036 -34.6875 43.1484375 C-33.70136719 42.5915625 -32.71523438 42.0346875 -31.69921875 41.4609375 C-29 40.1484375 -29 40.1484375 -26 40.1484375 C-24.61876037 42.11565758 -23.28511874 44.11712078 -22 46.1484375 C-19.43106162 47.43290669 -17.23423663 47.47820894 -14.375 47.7109375 C-13.37210937 47.79472656 -12.36921875 47.87851562 -11.3359375 47.96484375 C-10.56507813 48.02542969 -9.79421875 48.08601563 -9 48.1484375 C-8.67 46.4984375 -8.34 44.8484375 -8 43.1484375 C-8.99 42.4884375 -9.98 41.8284375 -11 41.1484375 C-11 40.4884375 -11 39.8284375 -11 39.1484375 C-11.94875 39.0453125 -12.8975 38.9421875 -13.875 38.8359375 C-23.53901345 37.3912163 -31.60815202 34.53199308 -37.9375 26.7734375 C-41.02367276 19.14877539 -39.71584701 13.63619649 -37 6.1484375 C-36.34 6.1484375 -35.68 6.1484375 -35 6.1484375 C-34.67 5.1584375 -34.34 4.1684375 -34 3.1484375 C-33.34 3.1484375 -32.68 3.1484375 -32 3.1484375 C-32 2.4884375 -32 1.8284375 -32 1.1484375 C-21.69142031 -4.17211976 -10.64429906 -4.93699397 0 0 Z " fill="#4E38EF" transform="translate(341,227.8515625)"/>
<path d="M0 0 C0 5.61 0 11.22 0 17 C3.35286458 16.70703125 6.70572917 16.4140625 10.05859375 16.12109375 C11.51458984 16.06115234 11.51458984 16.06115234 13 16 C14 17 14 17 14.09765625 20.59765625 C14.0909822 22.08596867 14.07902183 23.57426432 14.0625 25.0625 C14.05798828 25.82111328 14.05347656 26.57972656 14.04882812 27.36132812 C14.0370068 29.24091871 14.01907078 31.12046899 14 33 C9.38 33 4.76 33 0 33 C0.11981065 36.95120235 0.24242156 40.9021587 0.37231445 44.85302734 C0.43698251 46.85894807 0.49683106 48.86502228 0.55664062 50.87109375 C0.59853516 52.12792969 0.64042969 53.38476562 0.68359375 54.6796875 C0.72025146 55.84226074 0.75690918 57.00483398 0.79467773 58.20263672 C0.81821659 60.9535501 0.81821659 60.9535501 2 63 C4.8159849 63.46898963 4.8159849 63.46898963 8.0625 63.625 C9.16722656 63.69976562 10.27195312 63.77453125 11.41015625 63.8515625 C12.26480469 63.90054688 13.11945313 63.94953125 14 64 C14.02684679 66.64590014 14.04676357 69.29153096 14.0625 71.9375 C14.07087891 72.69224609 14.07925781 73.44699219 14.08789062 74.22460938 C14.09652441 76.14994313 14.05224333 78.07535581 14 80 C11.74117601 82.25882399 6.99289216 81.24952826 3.94458008 81.25097656 C-1.23902131 81.16949087 -6.52886486 80.85981914 -11 78 C-12.23046875 75.890625 -12.23046875 75.890625 -13 74 C-13.66 74 -14.32 74 -15 74 C-18.15039793 68.53931025 -18.1231602 62.80476934 -18.09765625 56.6328125 C-18.0962413 55.95322479 -18.09482635 55.27363708 -18.09336853 54.57345581 C-18.08781518 52.42392388 -18.07527169 50.27449992 -18.0625 48.125 C-18.05747896 46.65885568 -18.05291711 45.19270971 -18.04882812 43.7265625 C-18.03786111 40.15100717 -18.02062919 36.57551414 -18 33 C-21.63 33 -25.26 33 -29 33 C-29 27.72 -29 22.44 -29 17 C-25.37 17 -21.74 17 -18 17 C-18 12.71 -18 8.42 -18 4 C-6.75 0 -6.75 0 0 0 Z " fill="#4F38F2" transform="translate(382,210)"/>
<path d="M0 0 C0.79792969 0.00386719 1.59585937 0.00773438 2.41796875 0.01171875 C3.21589844 0.00785156 4.01382812 0.00398437 4.8359375 0 C10.79136108 0.01011108 10.79136108 0.01011108 11.91796875 1.13671875 C12.01317781 3.96712547 12.04350506 6.77306868 12.03149414 9.60375977 C12.03164017 10.49148071 12.03178619 11.37920166 12.03193665 12.29382324 C12.03123718 15.24278159 12.02344323 18.19167762 12.015625 21.140625 C12.01376094 23.17943792 12.01233698 25.21825129 12.01133728 27.25706482 C12.00751116 32.63456449 11.99768007 38.01203733 11.9866333 43.38952637 C11.9764212 48.87231076 11.97184009 54.35509947 11.96679688 59.83789062 C11.95605789 70.60418037 11.93846033 81.37044314 11.91796875 92.13671875 C5.64796875 92.13671875 -0.62203125 92.13671875 -7.08203125 92.13671875 C-7.10458103 80.28906362 -7.12294561 68.44142264 -7.13384342 56.59375095 C-7.13907256 51.09301013 -7.14617076 45.5922847 -7.1574707 40.09155273 C-7.1682985 34.78775315 -7.17430785 29.4839684 -7.17690849 24.18015862 C-7.17876294 22.15186263 -7.18238392 20.12356749 -7.18776131 18.09527779 C-7.19497031 15.26475361 -7.19602225 12.43429157 -7.19555664 9.60375977 C-7.19915192 8.75643784 -7.20274719 7.90911591 -7.20645142 7.03611755 C-7.19401752 0.09800103 -6.95536603 0.01180877 0 0 Z " fill="#4F39F1" transform="translate(412.08203125,197.86328125)"/>
<path d="M0 0 C0.66 0.474375 1.32 0.94875 2 1.4375 C2 2.0975 2 2.7575 2 3.4375 C3.32 4.0975 4.64 4.7575 6 5.4375 C6 6.0975 6 6.7575 6 7.4375 C6.66 7.4375 7.32 7.4375 8 7.4375 C8 8.0975 8 8.7575 8 9.4375 C6.35 9.4375 4.7 9.4375 3 9.4375 C2.505 8.4475 2.505 8.4475 2 7.4375 C0.02 8.4275 -1.96 9.4175 -4 10.4375 C-4 12.7475 -4 15.0575 -4 17.4375 C-4.99 17.9325 -4.99 17.9325 -6 18.4375 C-6 17.7775 -6 17.1175 -6 16.4375 C-6.5775 16.14875 -7.155 15.86 -7.75 15.5625 C-9.13843363 14.86828319 -10.51358232 14.14571634 -11.86328125 13.37890625 C-16.74236214 11.22925635 -22.95582125 12.13577645 -28 13.4375 C-28 14.0975 -28 14.7575 -28 15.4375 C-28.66 15.4375 -29.32 15.4375 -30 15.4375 C-30 16.0975 -30 16.7575 -30 17.4375 C-30.66 17.4375 -31.32 17.4375 -32 17.4375 C-32.33 19.0875 -32.66 20.7375 -33 22.4375 C-33.66 22.4375 -34.32 22.4375 -35 22.4375 C-35.28875 21.798125 -35.5775 21.15875 -35.875 20.5 C-36.82823451 18.28543921 -36.82823451 18.28543921 -39 17.4375 C-38.67 15.4575 -38.34 13.4775 -38 11.4375 C-38.66 11.4375 -39.32 11.4375 -40 11.4375 C-40 10.7775 -40 10.1175 -40 9.4375 C-41.98264795 10.09339738 -41.98264795 10.09339738 -44 11.4375 C-44.72159424 13.08113134 -45.39351421 14.74800386 -46 16.4375 C-46.66 16.7675 -47.32 17.0975 -48 17.4375 C-48.05855176 20.95826232 -48.0937806 24.4788976 -48.125 28 C-48.14175781 28.99064453 -48.15851563 29.98128906 -48.17578125 31.00195312 C-48.21274359 36.56478491 -47.87082551 41.18593075 -46 46.4375 C-45.34 46.4375 -44.68 46.4375 -44 46.4375 C-43.67 48.4175 -43.34 50.3975 -43 52.4375 C-48.41539858 47.79572979 -51.43366431 41.51669608 -52 34.4375 C-52.12233617 31.0954983 -52.10193124 27.77977171 -52 24.4375 C-51.979375 23.32375 -51.95875 22.21 -51.9375 21.0625 C-50.45244567 15.32028994 -47.42851463 10.25959101 -44 5.4375 C-43.34 5.4375 -42.68 5.4375 -42 5.4375 C-42 4.7775 -42 4.1175 -42 3.4375 C-41.34 3.4375 -40.68 3.4375 -40 3.4375 C-40 2.7775 -40 2.1175 -40 1.4375 C-38.41925436 0.61997697 -36.83528777 -0.19131997 -35.25 -1 C-33.92742187 -1.67869141 -33.92742187 -1.67869141 -32.578125 -2.37109375 C-22.01320503 -7.25336737 -9.9097613 -5.16133401 0 0 Z " fill="#4A36E3" transform="translate(282,229.5625)"/>
<path d="M0 0 C3.1875 2 3.1875 2 5 4 C4.67 4.66 4.34 5.32 4 6 C3.01 5.34 2.02 4.68 1 4 C1 3.34 1 2.68 1 2 C-0.258125 2.144375 -1.51625 2.28875 -2.8125 2.4375 C-3.52019531 2.51871094 -4.22789062 2.59992188 -4.95703125 2.68359375 C-7.19396393 2.97170735 -7.19396393 2.97170735 -10 4 C-10 31.39 -10 58.78 -10 87 C-5.05 87.33 -0.1 87.66 5 88 C5 73.48 5 58.96 5 44 C5.33 44 5.66 44 6 44 C6 58.85 6 73.7 6 89 C-0.27 89 -6.54 89 -13 89 C-13 59.96 -13 30.92 -13 1 C-9.06978326 -0.96510837 -4.28395638 -0.47530928 0 0 Z " fill="#3E2EB3" transform="translate(163,201)"/>
<path d="M0 0 C0.79792969 0.00386719 1.59585937 0.00773438 2.41796875 0.01171875 C3.21589844 0.00785156 4.01382812 0.00398437 4.8359375 0 C10.79136108 0.01011108 10.79136108 0.01011108 11.91796875 1.13671875 C12.01317781 3.96712547 12.04350506 6.77306868 12.03149414 9.60375977 C12.03164017 10.49148071 12.03178619 11.37920166 12.03193665 12.29382324 C12.03123718 15.24278159 12.02344323 18.19167762 12.015625 21.140625 C12.01376094 23.17943792 12.01233698 25.21825129 12.01133728 27.25706482 C12.00751116 32.63456449 11.99768007 38.01203733 11.9866333 43.38952637 C11.9764212 48.87231076 11.97184009 54.35509947 11.96679688 59.83789062 C11.95605789 70.60418037 11.93846033 81.37044314 11.91796875 92.13671875 C5.64796875 92.13671875 -0.62203125 92.13671875 -7.08203125 92.13671875 C-7.10458103 80.28906362 -7.12294561 68.44142264 -7.13384342 56.59375095 C-7.13907256 51.09301013 -7.14617076 45.5922847 -7.1574707 40.09155273 C-7.1682985 34.78775315 -7.17430785 29.4839684 -7.17690849 24.18015862 C-7.17876294 22.15186263 -7.18238392 20.12356749 -7.18776131 18.09527779 C-7.19497031 15.26475361 -7.19602225 12.43429157 -7.19555664 9.60375977 C-7.19915192 8.75643784 -7.20274719 7.90911591 -7.20645142 7.03611755 C-7.19401752 0.09800103 -6.95536603 0.01180877 0 0 Z M-6.08203125 3.13671875 C-6.17719336 5.87560295 -6.20757719 8.58919816 -6.19555664 11.32836914 C-6.19570267 12.18682938 -6.19584869 13.04528961 -6.19599915 13.92976379 C-6.19529972 16.78132613 -6.18750595 19.632824 -6.1796875 22.484375 C-6.17782343 24.45592717 -6.17639947 26.4274798 -6.17539978 28.39903259 C-6.17157376 33.59898142 -6.16174277 38.7989025 -6.1506958 43.99884033 C-6.14048347 49.30065536 -6.13590254 54.60247485 -6.13085938 59.90429688 C-6.12012058 70.31511638 -6.10304316 80.72591526 -6.08203125 91.13671875 C-0.80203125 91.13671875 4.47796875 91.13671875 9.91796875 91.13671875 C9.94109116 79.68021859 9.95888332 68.22372394 9.96978092 56.76720524 C9.97500997 51.44806662 9.98210802 46.12894391 9.9934082 40.80981445 C10.0042363 35.6810789 10.01024542 30.55235869 10.01284599 25.42361259 C10.01470038 23.46230261 10.01832126 21.50099351 10.02369881 19.53969002 C10.03090821 16.80256428 10.03195974 14.06550278 10.03149414 11.32836914 C10.03508942 10.50909943 10.03868469 9.68982971 10.04238892 8.84573364 C10.38352375 5.19168437 10.38352375 5.19168437 8.91796875 2.13671875 C6.5863682 2.03762573 4.25166933 2.00701371 1.91796875 2.01171875 C0.63921875 2.00914062 -0.63953125 2.0065625 -1.95703125 2.00390625 C-4.94890369 1.77810982 -4.94890369 1.77810982 -6.08203125 3.13671875 Z " fill="#251E7C" transform="translate(412.08203125,197.86328125)"/>
<path d="M0 0 C0.69802734 -0.00386719 1.39605469 -0.00773438 2.11523438 -0.01171875 C7.31086006 -0.00163994 7.31086006 -0.00163994 8.4375 1.125 C8.53266211 3.8638842 8.56304594 6.57747941 8.55102539 9.31665039 C8.55117142 10.17511063 8.55131744 11.03357086 8.5514679 11.91804504 C8.55076847 14.76960738 8.5429747 17.62110525 8.53515625 20.47265625 C8.53329218 22.44420842 8.53186822 24.41576105 8.53086853 26.38731384 C8.52704251 31.58726267 8.51721152 36.78718375 8.50616455 41.98712158 C8.49595222 47.28893661 8.49137129 52.5907561 8.48632812 57.89257812 C8.47558933 68.30339763 8.45851191 78.71419651 8.4375 89.125 C3.4875 89.125 -1.4625 89.125 -6.5625 89.125 C-8.5425 85.66 -8.5425 85.66 -10.5625 82.125 C-9.9025 82.125 -9.2425 82.125 -8.5625 82.125 C-8.5625 82.785 -8.5625 83.445 -8.5625 84.125 C-7.5725 84.125 -6.5825 84.125 -5.5625 84.125 C-5.5625 85.115 -5.5625 86.105 -5.5625 87.125 C-1.2725 87.455 3.0175 87.785 7.4375 88.125 C7.4375 59.745 7.4375 31.365 7.4375 2.125 C2.1575 2.125 -3.1225 2.125 -8.5625 2.125 C-8.5625 18.625 -8.5625 35.125 -8.5625 52.125 C-10.0475 52.62 -10.0475 52.62 -11.5625 53.125 C-11.8925 51.805 -12.2225 50.485 -12.5625 49.125 C-12.2325 49.125 -11.9025 49.125 -11.5625 49.125 C-11.55219254 48.56789841 -11.54188507 48.01079681 -11.53126526 47.43681335 C-11.4231998 41.64566308 -11.30860173 35.85466839 -11.19018555 30.0637207 C-11.14683687 27.9016444 -11.10516175 25.73953387 -11.06518555 23.57739258 C-11.00748156 20.47206298 -10.94378728 17.36690564 -10.87890625 14.26171875 C-10.85383751 12.80846443 -10.85383751 12.80846443 -10.82826233 11.32585144 C-10.7983445 9.97479057 -10.7983445 9.97479057 -10.76782227 8.59643555 C-10.74450584 7.40729805 -10.74450584 7.40729805 -10.72071838 6.19413757 C-10.5625 4.125 -10.5625 4.125 -9.5625 1.125 C-6.51267742 -0.39991129 -3.34127461 -0.01861434 0 0 Z " fill="#392A98" transform="translate(210.5625,200.875)"/>
<path d="M0 0 C3.63 0 7.26 0 11 0 C11 0.33 11 0.66 11 1 C8.03 1 5.06 1 2 1 C2 5.62 2 10.24 2 15 C5.63 15 9.26 15 13 15 C13.86761119 19.33805596 14.16531459 23.02352792 14.24609375 27.41796875 C14.27899677 28.85091838 14.31220894 30.28386094 14.34570312 31.71679688 C14.393301 33.96178887 14.43783407 36.20674522 14.47680664 38.4519043 C14.516396 40.62837079 14.56792573 42.80429766 14.62109375 44.98046875 C14.6461499 46.27879639 14.67120605 47.57712402 14.69702148 48.91479492 C14.68072809 52.10380378 14.68072809 52.10380378 17 54 C17 55.32 17 56.64 17 58 C18.98 58 20.96 58 23 58 C22.67 59.32 22.34 60.64 22 62 C19.5625 61.1875 19.5625 61.1875 17 60 C16.67 59.01 16.34 58.02 16 57 C15.34 57 14.68 57 14 57 C10.84960207 51.53931025 10.8768398 45.80476934 10.90234375 39.6328125 C10.9037587 38.95322479 10.90517365 38.27363708 10.90663147 37.57345581 C10.91218482 35.42392388 10.92472831 33.27449992 10.9375 31.125 C10.94252104 29.65885568 10.94708289 28.19270971 10.95117188 26.7265625 C10.96213889 23.15100717 10.97937081 19.57551414 11 16 C7.37 16 3.74 16 0 16 C0 10.72 0 5.44 0 0 Z " fill="#3B2EAA" transform="translate(353,227)"/>
<path d="M0 0 C4.04420867 3.5570911 5.01732559 7.82909946 6 13 C6.27575671 17.34921553 6.3409281 21.65316673 6 26 C5 27 5 27 3.13340759 27.12025452 C2.31844315 27.11803391 1.5034787 27.11581329 0.66381836 27.11352539 C-0.71750023 27.11341209 -0.71750023 27.11341209 -2.12672424 27.11329651 C-3.12775681 27.10813522 -4.12878937 27.10297394 -5.16015625 27.09765625 C-6.17975937 27.0962413 -7.19936249 27.09482635 -8.24986267 27.09336853 C-11.52077107 27.08775097 -14.79161213 27.0751955 -18.0625 27.0625 C-20.27408756 27.05748726 -22.48567618 27.05292396 -24.69726562 27.04882812 C-30.13153357 27.03777584 -35.56576197 27.02102063 -41 27 C-41 26.67 -41 26.34 -41 26 C-26.48 25.67 -11.96 25.34 3 25 C3.63333333 8.9 3.63333333 8.9 0 4 C0 2.68 0 1.36 0 0 Z " fill="#32249B" transform="translate(290,239)"/>
<path d="M0 0 C0.33 0 0.66 0 1 0 C1 3.96 1 7.92 1 12 C0.01 12.495 0.01 12.495 -1 13 C-1.74118205 15.31074405 -2.40206327 17.64811553 -3 20 C-3.20625 20.804375 -3.4125 21.60875 -3.625 22.4375 C-3.74875 22.953125 -3.8725 23.46875 -4 24 C-4.66 24 -5.32 24 -6 24 C-5.938125 25.299375 -5.938125 25.299375 -5.875 26.625 C-6.00457721 30.12358468 -6.76019656 32.74551597 -8 36 C-5.525 35.505 -5.525 35.505 -3 35 C-7.82142857 40.22321429 -7.82142857 40.22321429 -12 41 C-8.89541083 28.13577149 -5.25950603 15.53434258 -1 3 C-0.67 2.01 -0.34 1.02 0 0 Z " fill="#3D2EAB" transform="translate(41,280)"/>
<path d="M0 0 C6.01738755 1.25362241 10.52638795 3.72392407 15 8 C15 8.66 15 9.32 15 10 C14.34 10 13.68 10 13 10 C12.731875 10.598125 12.46375 11.19625 12.1875 11.8125 C11.01506533 13.97224808 9.80630718 15.35790256 8 17 C7.34 16.67 6.68 16.34 6 16 C6.33 15.34 6.66 14.68 7 14 C6.34 14 5.68 14 5 14 C4.67 12.02 4.34 10.04 4 8 C4.99 7.67 5.98 7.34 7 7 C7 6.34 7 5.68 7 5 C3.7 4.67 0.4 4.34 -3 4 C-2.67 3.34 -2.34 2.68 -2 2 C-1.34 2 -0.68 2 0 2 C0 1.34 0 0.68 0 0 Z " fill="#4330CA" transform="translate(278,270)"/>
<path d="M0 0 C0.66 0 1.32 0 2 0 C2 15.84 2 31.68 2 48 C0.515 48.495 0.515 48.495 -1 49 C-1.33 47.68 -1.66 46.36 -2 45 C-1.67 45 -1.34 45 -1 45 C-0.67 30.15 -0.34 15.3 0 0 Z " fill="#281E9E" transform="translate(200,205)"/>
<path d="M0 0 C0.33 0 0.66 0 1 0 C1 1.65 1 3.3 1 5 C1.99 5 2.98 5 4 5 C4 5.66 4 6.32 4 7 C5.65 7 7.3 7 9 7 C9 7.99 9 8.98 9 10 C17.91 9.67 26.82 9.34 36 9 C28.79066343 13.80622438 19.43401234 12.69407943 11 12 C6.00108594 10.80275725 2.24467372 8.82978248 -2 6 C-2 5.34 -2 4.68 -2 4 C-2.99 3.67 -3.98 3.34 -5 3 C-4.360625 2.690625 -3.72125 2.38125 -3.0625 2.0625 C-1.06389179 1.1654837 -1.06389179 1.1654837 0 0 Z " fill="#352AA0" transform="translate(244,280)"/>
<path d="M0 0 C0.33 0.66 0.66 1.32 1 2 C0.34 2 -0.32 2 -1 2 C-1.33 4.31 -1.66 6.62 -2 9 C-0.97845825 9.20363159 -0.97845825 9.20363159 0.0637207 9.41137695 C3.14915783 10.03330717 6.23072545 10.67267887 9.3125 11.3125 C10.38435547 11.52583984 11.45621094 11.73917969 12.56054688 11.95898438 C13.58857422 12.17490234 14.61660156 12.39082031 15.67578125 12.61328125 C16.62364502 12.80704346 17.57150879 13.00080566 18.5480957 13.20043945 C21.14589242 14.0475752 22.28016283 14.91756173 24 17 C17.43025658 16.31419049 11.11686877 14.99719166 4.6875 13.5 C3.69943359 13.27441406 2.71136719 13.04882812 1.69335938 12.81640625 C-5.55200893 11.14933036 -5.55200893 11.14933036 -9 10 C-9 9.01 -9 8.02 -9 7 C-4.65714286 3 -4.65714286 3 -2 3 C-2 2.34 -2 1.68 -2 1 C-1.34 0.67 -0.68 0.34 0 0 Z " fill="#3A2DA4" transform="translate(9,237)"/>
<path d="M0 0 C0 5.28 0 10.56 0 16 C-4.62 16 -9.24 16 -14 16 C-14 15.34 -14 14.68 -14 14 C-10.37 14 -6.74 14 -3 14 C-3 10.04 -3 6.08 -3 2 C-6.63 2 -10.26 2 -14 2 C-14 1.34 -14 0.68 -14 0 C-12.04235617 -0.19456705 -10.08384679 -0.38044247 -8.125 -0.5625 C-6.48917969 -0.71912109 -6.48917969 -0.71912109 -4.8203125 -0.87890625 C-2 -1 -2 -1 0 0 Z " fill="#4130B1" transform="translate(396,227)"/>
<path d="M0 0 C-1.65 0.66 -3.3 1.32 -5 2 C-5.33 5.96 -5.66 9.92 -6 14 C-1.71 14 2.58 14 7 14 C7 13.34 7 12.68 7 12 C7.99 12 8.98 12 10 12 C10 11.34 10 10.68 10 10 C10.66 10 11.32 10 12 10 C12 9.34 12 8.68 12 8 C13.32 8.33 14.64 8.66 16 9 C7.83575101 15.90487016 2.73191495 17 -8 17 C-8 11.39 -8 5.78 -8 0 C-4.29847322 -0.92538169 -3.36541838 -1.08174162 0 0 Z " fill="#362994" transform="translate(447,299)"/>
<path d="M0 0 C0.66 0 1.32 0 2 0 C2.02505615 0.83772949 2.0501123 1.67545898 2.07592773 2.53857422 C2.17100357 5.64352256 2.27024025 8.74830181 2.37231445 11.85302734 C2.43698251 13.85894807 2.49683106 15.86502228 2.55664062 17.87109375 C2.59853516 19.12792969 2.64042969 20.38476562 2.68359375 21.6796875 C2.72025146 22.84226074 2.75690918 24.00483398 2.79467773 25.20263672 C2.81821659 27.9535501 2.81821659 27.9535501 4 30 C7.98565046 30.60613909 11.97274969 30.74564735 16 31 C16 36.28 16 41.56 16 47 C15.67 47 15.34 47 15 47 C15 42.05 15 37.1 15 32 C12.1228125 32.0928125 12.1228125 32.0928125 9.1875 32.1875 C3.55665051 32.36914031 3.55665051 32.36914031 1.3359375 30.89648438 C-0.65467439 28.07063037 -0.33781893 25.78684482 -0.29296875 22.36328125 C-0.2784668 20.41518555 -0.2784668 20.41518555 -0.26367188 18.42773438 C-0.23860585 17.05598361 -0.21321101 15.68423882 -0.1875 14.3125 C-0.1724502 12.92905076 -0.1587623 11.54558599 -0.14648438 10.16210938 C-0.11107223 6.77434793 -0.06168054 3.38736861 0 0 Z " fill="#2D1F8F" transform="translate(380,243)"/>
<path d="M0 0 C0.90657887 3.07508356 1.09447738 5.75779768 1.02734375 8.95703125 C1.01509766 9.90513672 1.00285156 10.85324219 0.99023438 11.83007812 C0.95528397 13.80671761 0.91627001 15.78328973 0.87304688 17.75976562 C0.80960342 23.27188263 1.14857874 27.79423906 3 33 C3.66 33 4.32 33 5 33 C5.33 34.98 5.66 36.96 6 39 C0.58460142 34.35822979 -2.43366431 28.07919608 -3 21 C-3.55201255 5.92002091 -3.55201255 5.92002091 0 0 Z " fill="#4030B2" transform="translate(233,243)"/>
<path d="M0 0 C2.39782638 0.11152681 4.39644512 0.44616892 6.6875 1.125 C6.3575 3.765 6.0275 6.405 5.6875 9.125 C6.3475 9.455 7.0075 9.785 7.6875 10.125 C6.6975 10.125 5.7075 10.125 4.6875 10.125 C3.30078125 8.375 3.30078125 8.375 2 6.125 C1.56300781 5.3825 1.12601563 4.64 0.67578125 3.875 C0.34964844 3.2975 0.02351562 2.72 -0.3125 2.125 C-1.13014746 5.01041684 -1.45757455 7.62299177 -1.51782227 10.61816406 C-1.5477401 11.93908051 -1.5477401 11.93908051 -1.57826233 13.28668213 C-1.59497482 14.22848328 -1.61168732 15.17028442 -1.62890625 16.140625 C-1.64968735 17.11159119 -1.67046844 18.08255737 -1.69187927 19.08294678 C-1.75718862 22.18022685 -1.81617323 25.27759068 -1.875 28.375 C-1.91820292 30.47657111 -1.96181778 32.5781338 -2.00585938 34.6796875 C-2.11285098 39.82803948 -2.2141709 44.97647558 -2.3125 50.125 C-2.6425 50.125 -2.9725 50.125 -3.3125 50.125 C-3.33776838 43.16496553 -3.35533222 36.2049428 -3.36743164 29.24487305 C-3.37247341 26.87507688 -3.37930665 24.50528385 -3.38793945 22.13549805 C-3.4000119 18.73745961 -3.40572971 15.33946215 -3.41015625 11.94140625 C-3.41531754 10.87475235 -3.42047882 9.80809845 -3.42579651 8.7091217 C-3.42587204 7.72818039 -3.42594757 6.74723907 -3.42602539 5.73657227 C-3.428246 4.86831314 -3.43046661 4.00005402 -3.43275452 3.10548401 C-3.25703639 0.21156411 -2.89932483 0.15672026 0 0 Z " fill="#4E3CD9" transform="translate(170.3125,238.875)"/>
<path d="M0 0 C0 5.61 0 11.22 0 17 C-0.33 17 -0.66 17 -1 17 C-1 14.03 -1 11.06 -1 8 C-1.66 8 -2.32 8 -3 8 C-3 6.35 -3 4.7 -3 3 C-7.34184202 3.18464366 -7.34184202 3.18464366 -11 5 C-12.65 5 -14.3 5 -16 5 C-16 8.63 -16 12.26 -16 16 C-16.66 16.33 -17.32 16.66 -18 17 C-18 12.71 -18 8.42 -18 4 C-6.75 0 -6.75 0 0 0 Z " fill="#342895" transform="translate(382,210)"/>
<path d="M0 0 C1.890625 1.16796875 1.890625 1.16796875 3.890625 4.16796875 C1.93014148 3.91316585 -0.02778173 3.63859931 -1.984375 3.35546875 C-3.07492187 3.20464844 -4.16546875 3.05382812 -5.2890625 2.8984375 C-8.109375 2.16796875 -8.109375 2.16796875 -10.109375 -0.83203125 C-12.63631752 -1.27347368 -12.63631752 -1.27347368 -15.484375 -1.14453125 C-16.44085938 -1.14066406 -17.39734375 -1.13679687 -18.3828125 -1.1328125 C-21.14227998 -0.82840133 -22.68083156 -0.08627899 -25.109375 1.16796875 C-26.429375 1.16796875 -27.749375 1.16796875 -29.109375 1.16796875 C-29.439375 2.48796875 -29.769375 3.80796875 -30.109375 5.16796875 C-31.759375 5.49796875 -33.409375 5.82796875 -35.109375 6.16796875 C-34.779375 5.17796875 -34.449375 4.18796875 -34.109375 3.16796875 C-33.449375 3.16796875 -32.789375 3.16796875 -32.109375 3.16796875 C-32.109375 2.50796875 -32.109375 1.84796875 -32.109375 1.16796875 C-21.62186773 -4.24493823 -10.86474954 -4.69486694 0 0 Z " fill="#352891" transform="translate(341.109375,227.83203125)"/>
<path d="M0 0 C-0.61419174 8.59868438 -2.80907021 16.69484752 -5 25 C-5.33 25 -5.66 25 -6 25 C-6.08139142 22.60347472 -6.14067009 20.20974564 -6.1875 17.8125 C-6.21263672 17.13896484 -6.23777344 16.46542969 -6.26367188 15.77148438 C-6.32923478 11.29135252 -5.66743649 8.60559001 -3 5 C-3.78375 5.515625 -4.5675 6.03125 -5.375 6.5625 C-6.24125 7.036875 -7.1075 7.51125 -8 8 C-8.66 7.67 -9.32 7.34 -10 7 C-8.71372289 5.82739389 -7.42080217 4.6620717 -6.125 3.5 C-5.04605469 2.52546875 -5.04605469 2.52546875 -3.9453125 1.53125 C-2 0 -2 0 0 0 Z " fill="#332791" transform="translate(84,175)"/>
<path d="M0 0 C0.66 0.33 1.32 0.66 2 1 C0.1875 3.5 0.1875 3.5 -2 6 C-2.99 6 -3.98 6 -5 6 C-5.20625 6.70125 -5.4125 7.4025 -5.625 8.125 C-7.41600081 11.86981988 -9.6535444 14.53336371 -13 17 C-16.375 17.875 -16.375 17.875 -19 18 C-19 17.34 -19 16.68 -19 16 C-18.34 16 -17.68 16 -17 16 C-17 15.34 -17 14.68 -17 14 C-15.171875 12.34375 -15.171875 12.34375 -12.75 10.5 C-11.96109375 9.8915625 -11.1721875 9.283125 -10.359375 8.65625 C-8.28862321 7.20260967 -6.2941068 6.05234257 -4 5 C-4 4.34 -4 3.68 -4 3 C-2 1.375 -2 1.375 0 0 Z " fill="#4432C0" transform="translate(37,213)"/>
<path d="M0 0 C0.66 0 1.32 0 2 0 C0.58141556 8.01934468 -2.70501937 15.58629357 -6 23 C-6.66 22.67 -7.32 22.34 -8 22 C-7.34 17.71 -6.68 13.42 -6 9 C-5.01 9 -4.02 9 -3 9 C-2.01 6.03 -1.02 3.06 0 0 Z " fill="#4030B9" transform="translate(479,268)"/>
<path d="M0 0 C0.66 0 1.32 0 2 0 C1.67 1.98 1.34 3.96 1 6 C2.32 5.67 3.64 5.34 5 5 C5.33 3.35 5.66 1.7 6 0 C6.99 0 7.98 0 9 0 C8.84660156 0.56203125 8.69320313 1.1240625 8.53515625 1.703125 C7.98639581 4.05838878 7.68502401 6.34548104 7.4375 8.75 C7.35371094 9.54921875 7.26992188 10.3484375 7.18359375 11.171875 C7.12300781 11.77515625 7.06242187 12.3784375 7 13 C7.99 13.33 8.98 13.66 10 14 C9.01 14.495 9.01 14.495 8 15 C-0.81548975 8.07061503 -0.81548975 8.07061503 -2 2 C-1.34 2 -0.68 2 0 2 C0 1.34 0 0.68 0 0 Z " fill="#4D38E9" transform="translate(301,274)"/>
<path d="M0 0 C11.52164009 3.07517084 11.52164009 3.07517084 17 5 C15.44499019 8.81684226 12.96404505 11.19195732 10 14 C9.34 13.67 8.68 13.34 8 13 C8.33 11.68 8.66 10.36 9 9 C9.99 9 10.98 9 12 9 C12 7.68 12 6.36 12 5 C9.69 5 7.38 5 5 5 C5 4.34 5 3.68 5 3 C2.525 2.01 2.525 2.01 0 1 C0 0.67 0 0.34 0 0 Z " fill="#372B9F" transform="translate(99,242)"/>
<path d="M0 0 C2.64 0 5.28 0 8 0 C7.34 0.66 6.68 1.32 6 2 C5.01 2 4.02 2 3 2 C3 2.66 3 3.32 3 4 C2.34 4 1.68 4 1 4 C1 4.66 1 5.32 1 6 C0.34 6 -0.32 6 -1 6 C-1.33 7.65 -1.66 9.3 -2 11 C-2.66 11 -3.32 11 -4 11 C-4.28875 10.360625 -4.5775 9.72125 -4.875 9.0625 C-5.82823451 6.84793921 -5.82823451 6.84793921 -8 6 C-7.67 5.01 -7.34 4.02 -7 3 C-6.34 3 -5.68 3 -5 3 C-5 3.66 -5 4.32 -5 5 C-3.35 5 -1.7 5 0 5 C0 3.35 0 1.7 0 0 Z " fill="#4835D4" transform="translate(251,241)"/>
<path d="M0 0 C1.23556641 0.01740234 1.23556641 0.01740234 2.49609375 0.03515625 C3.32238281 0.04417969 4.14867188 0.05320312 5 0.0625 C5.63808594 0.07410156 6.27617188 0.08570313 6.93359375 0.09765625 C3.12947541 4.0170509 -0.88216733 7.58868356 -5.06640625 11.09765625 C-5.39640625 9.77765625 -5.72640625 8.45765625 -6.06640625 7.09765625 C-4.74640625 7.09765625 -3.42640625 7.09765625 -2.06640625 7.09765625 C-2.25203125 6.12828125 -2.43765625 5.15890625 -2.62890625 4.16015625 C-2.77328125 3.14953125 -2.91765625 2.13890625 -3.06640625 1.09765625 C-2.06640625 0.09765625 -2.06640625 0.09765625 0 0 Z " fill="#3F2FC3" transform="translate(79.06640625,273.90234375)"/>
<path d="M0 0 C6.27 0 12.54 0 19 0 C19.33 1.98 19.66 3.96 20 6 C18.5 4.625 18.5 4.625 17 3 C17 2.34 17 1.68 17 1 C12.38 1 7.76 1 3 1 C3.33 3.97 3.66 6.94 4 10 C3.34 9.67 2.68 9.34 2 9 C1.34 6.03 0.68 3.06 0 0 Z " fill="#3F30A9" transform="translate(430,227)"/>
<path d="M0 0 C8.94129144 1.44006377 17.41105391 4.20805971 26 7 C18.44975186 9.51674938 8.38811374 5.12477522 1.4765625 1.76953125 C0.98929687 1.51558594 0.50203125 1.26164063 0 1 C0 0.67 0 0.34 0 0 Z " fill="#372A9B" transform="translate(70,234)"/>
<path d="M0 0 C0.33 0 0.66 0 1 0 C1 1.65 1 3.3 1 5 C1.99 5 2.98 5 4 5 C4 5.66 4 6.32 4 7 C5.65 7 7.3 7 9 7 C9.33 8.32 9.66 9.64 10 11 C8.56068883 10.54738642 7.12361001 10.08767021 5.6875 9.625 C4.48673828 9.24214844 4.48673828 9.24214844 3.26171875 8.8515625 C1 8 1 8 -2 6 C-2 5.34 -2 4.68 -2 4 C-2.99 3.67 -3.98 3.34 -5 3 C-4.360625 2.690625 -3.72125 2.38125 -3.0625 2.0625 C-1.06389179 1.1654837 -1.06389179 1.1654837 0 0 Z " fill="#3D2EB5" transform="translate(244,280)"/>
<path d="M0 0 C1.32 0 2.64 0 4 0 C2.33729216 17.29216152 2.33729216 17.29216152 -1.6015625 21.85546875 C-2.06304687 22.23316406 -2.52453125 22.61085938 -3 23 C-2.42351925 15.64987044 -0.28953836 8.98575424 2 2 C1.34 1.34 0.68 0.68 0 0 Z " fill="#382A9C" transform="translate(45,257)"/>
<path d="M0 0 C2.93018432 1.46509216 3.34953236 3.7822414 4.39453125 6.7421875 C5.82756341 12.08601064 5.50101998 16.99796005 3 22 C1.88104043 18.6431213 2.03902227 15.52844669 2.09765625 12.0234375 C1.95894069 9.14925118 0.9775698 6.68831696 0 4 C0 2.68 0 1.36 0 0 Z " fill="#382CA1" transform="translate(347,259)"/>
<path d="M0 0 C2.66666667 0.66666667 5.33333333 1.33333333 8 2 C8 2.99 8 3.98 8 5 C8.66 5.33 9.32 5.66 10 6 C10 6.66 10 7.32 10 8 C12.64 8.33 15.28 8.66 18 9 C18 9.66 18 10.32 18 11 C11.12897714 10.07750156 5.9597741 7.97242658 1 3 C0.67 2.01 0.34 1.02 0 0 Z " fill="#392BAA" transform="translate(304,254)"/>
<path d="M0 0 C6.27 0 12.54 0 19 0 C17.74515397 4.39196109 16.47250397 8.68766694 15 13 C14.67 13 14.34 13 14 13 C14 10.36 14 7.72 14 5 C14.99 5 15.98 5 17 5 C17 3.68 17 2.36 17 1 C11.72 1 6.44 1 1 1 C1 1.99 1 2.98 1 4 C0.34 4 -0.32 4 -1 4 C-0.67 2.68 -0.34 1.36 0 0 Z " fill="#372898" transform="translate(477,227)"/>
<path d="M0 0 C0.66 0 1.32 0 2 0 C4.18302892 4.14650034 5.85758679 8.21411278 7.25 12.6875 C7.60578125 13.80511719 7.9615625 14.92273438 8.328125 16.07421875 C9 19 9 19 8 22 C6.65791246 18.89954577 5.32786246 15.79407011 4 12.6875 C3.6184375 11.80642578 3.236875 10.92535156 2.84375 10.01757812 C2.4828125 9.17001953 2.121875 8.32246094 1.75 7.44921875 C1.41484375 6.66893311 1.0796875 5.88864746 0.734375 5.0847168 C0 3 0 3 0 0 Z " fill="#392BA5" transform="translate(444,260)"/>
<path d="M0 0 C1.0625 1.875 1.0625 1.875 2 4 C1.67 4.66 1.34 5.32 1 6 C3.64 6.33 6.28 6.66 9 7 C9 7.66 9 8.32 9 9 C3.06 8.01 3.06 8.01 -3 7 C-3 6.34 -3 5.68 -3 5 C-3.66 5 -4.32 5 -5 5 C-5 4.34 -5 3.68 -5 3 C-2.5 1.375 -2.5 1.375 0 0 Z " fill="#4534CB" transform="translate(36,248)"/>
<path d="M0 0 C1.98 0 3.96 0 6 0 C6 5.61 6 11.22 6 17 C5.67 17 5.34 17 5 17 C5 14.03 5 11.06 5 8 C4.34 8 3.68 8 3 8 C3 6.35 3 4.7 3 3 C1.68 2.67 0.36 2.34 -1 2 C-0.67 1.34 -0.34 0.68 0 0 Z " fill="#3A2BA9" transform="translate(376,210)"/>
<path d="M0 0 C0.99 0.33 1.98 0.66 3 1 C3 1.66 3 2.32 3 3 C3.99 3.33 4.98 3.66 6 4 C6.33 4.99 6.66 5.98 7 7 C7.99 7.33 8.98 7.66 10 8 C11.12411056 10.33814997 12.09409458 12.58255576 13 15 C13.391875 15.969375 13.78375 16.93875 14.1875 17.9375 C14.455625 18.618125 14.72375 19.29875 15 20 C11.20238628 16.48268634 8.27446605 12.48404045 5.25 8.3125 C4.74339844 7.62349609 4.23679688 6.93449219 3.71484375 6.22460938 C0 1.13297043 0 1.13297043 0 0 Z " fill="#2F2389" transform="translate(177,251)"/>
<path d="M0 0 C1.95115425 2.92673137 3.29645658 5.7129896 4.6875 8.9375 C5.14511719 9.97777344 5.60273438 11.01804688 6.07421875 12.08984375 C7.00643141 15.02021689 7.11435288 16.19723367 6 19 C6 18.34 6 17.68 6 17 C5.34 17 4.68 17 4 17 C0.92291196 11.06561592 -0.48736475 6.70126536 0 0 Z " fill="#322496" transform="translate(451,234)"/>
<path d="M0 0 C0.66 0 1.32 0 2 0 C2 1.32 2 2.64 2 4 C2.66 4 3.32 4 4 4 C4.99 7.63 5.98 11.26 7 15 C7.66 15 8.32 15 9 15 C9.33 17.64 9.66 20.28 10 23 C6.9150315 21.45751575 6.71567077 18.99180259 5.5625 15.8125 C4.2969598 12.34119067 3.02656153 9.05181062 1.33984375 5.76171875 C0 3 0 3 0 0 Z " fill="#31238F" transform="translate(434,237)"/>
<path d="M0 0 C3.19902639 -0.08886184 5.92677456 0.08941469 9 1 C8.67 3.64 8.34 6.28 8 9 C8.66 9.33 9.32 9.66 10 10 C9.01 10 8.02 10 7 10 C5.61328125 8.25 5.61328125 8.25 4.3125 6 C3.87550781 5.2575 3.43851563 4.515 2.98828125 3.75 C2.66214844 3.1725 2.33601562 2.595 2 2 C1.34 3.32 0.68 4.64 0 6 C0 4.02 0 2.04 0 0 Z " fill="#4130C1" transform="translate(168,239)"/>
<path d="M0 0 C-5.68567876 2.90770954 -10.10569223 3.3864851 -16.4375 3.1875 C-17.67790039 3.16719727 -17.67790039 3.16719727 -18.94335938 3.14648438 C-20.9625264 3.11146992 -22.98135318 3.05767562 -25 3 C-25 2.67 -25 2.34 -25 2 C-24.15695312 1.93941406 -23.31390625 1.87882812 -22.4453125 1.81640625 C-21.34960938 1.73261719 -20.25390625 1.64882813 -19.125 1.5625 C-17.48917969 1.44068359 -17.48917969 1.44068359 -15.8203125 1.31640625 C-13.05271029 1.16998297 -13.05271029 1.16998297 -11 0 C-9.50650886 -0.25077277 -8.00471429 -0.45400974 -6.5 -0.625 C-5.30890625 -0.76808594 -5.30890625 -0.76808594 -4.09375 -0.9140625 C-2 -1 -2 -1 0 0 Z " fill="#2E2391" transform="translate(342,289)"/>
<path d="M0 0 C0.33 0 0.66 0 1 0 C1 2.31 1 4.62 1 7 C2.65 6.67 4.3 6.34 6 6 C1.5 10.875 1.5 10.875 -3 12 C-2.01 8.04 -1.02 4.08 0 0 Z " fill="#332786" transform="translate(32,309)"/>
<path d="M0 0 C1.03125 0.804375 2.0625 1.60875 3.125 2.4375 C8.91977702 6.14029976 15.30674078 5.89659291 22 6 C22 6.33 22 6.66 22 7 C19.27022936 7.08126109 16.5428983 7.14061663 13.8125 7.1875 C13.04357422 7.21263672 12.27464844 7.23777344 11.48242188 7.26367188 C6.90184252 7.32264929 3.59095817 7.20235749 0 4 C0 2.68 0 1.36 0 0 Z " fill="#4636BA" transform="translate(250,270)"/>
<path d="M0 0 C0.33 0 0.66 0 1 0 C0.67 3.96 0.34 7.92 0 12 C-0.99 12.33 -1.98 12.66 -3 13 C-6.07692308 8.56923077 -6.07692308 8.56923077 -5.6875 5.6875 C-5.460625 5.130625 -5.23375 4.57375 -5 4 C-4.67 5.65 -4.34 7.3 -4 9 C-3.34 9 -2.68 9 -2 9 C-1.34 6.03 -0.68 3.06 0 0 Z " fill="#3E2EB4" transform="translate(467,257)"/>
<path d="M0 0 C0.66 0.33 1.32 0.66 2 1 C2 1.66 2 2.32 2 3 C2.66 3 3.32 3 4 3 C4.66 4.32 5.32 5.64 6 7 C3.36 8.65 0.72 10.3 -2 12 C-2.33 11.34 -2.66 10.68 -3 10 C-2.34 10 -1.68 10 -1 10 C-1 9.01 -1 8.02 -1 7 C-0.34 6.67 0.32 6.34 1 6 C0.67 4.02 0.34 2.04 0 0 Z " fill="#3A2DA4" transform="translate(345,232)"/>
<path d="M0 0 C5.62541841 0.45003347 8.61487125 1.68441485 13 5 C9.70303895 6.09898702 8.59505097 5.87124444 5.3125 5.0625 C4.50425781 4.86785156 3.69601562 4.67320312 2.86328125 4.47265625 C2.24839844 4.31667969 1.63351562 4.16070312 1 4 C0.67 2.68 0.34 1.36 0 0 Z " fill="#3E2FAF" transform="translate(332,226)"/>
<path d="M0 0 C0.33 0 0.66 0 1 0 C0.75690081 7.40237027 0.31960155 12.86895264 -4 19 C-5.79341438 14.83326479 -4.01173384 11.25336659 -2.5625 7.25 C-2.19801758 6.20392578 -2.19801758 6.20392578 -1.82617188 5.13671875 C-1.22689752 3.42114902 -0.61470115 1.71010285 0 0 Z " fill="#3B2DA8" transform="translate(473,238)"/>
<path d="M0 0 C0.99 0 1.98 0 3 0 C2.55135776 2.79354568 2.09158769 5.58444672 1.625 8.375 C1.49867187 9.1690625 1.37234375 9.963125 1.2421875 10.78125 C1.11328125 11.54179687 0.984375 12.30234375 0.8515625 13.0859375 C0.73635254 13.7876709 0.62114258 14.4894043 0.50244141 15.21240234 C0 17 0 17 -2 19 C-1.45118943 12.64780958 -0.83488387 6.32126362 0 0 Z " fill="#3D2EAA" transform="translate(71,215)"/>
<path d="M0 0 C0.66 0 1.32 0 2 0 C1.67 0.886875 1.34 1.77375 1 2.6875 C-0.65048396 8.31309323 -0.15703422 14.19845814 0 20 C-2.4133564 17.5866436 -2.67934751 15.70724928 -3.046875 12.375 C-2.96111055 8.02960118 -1.47022201 4.05349346 0 0 Z " fill="#3628A0" transform="translate(304,234)"/>
<path d="M0 0 C2.97 0.495 2.97 0.495 6 1 C5.01 2.485 5.01 2.485 4 4 C3.34 4 2.68 4 2 4 C2 4.66 2 5.32 2 6 C-0.5 7.625 -0.5 7.625 -3 9 C-2.67 7.35 -2.34 5.7 -2 4 C-1.34 4 -0.68 4 0 4 C0 2.68 0 1.36 0 0 Z " fill="#3D2CB2" transform="translate(41,306)"/>
<path d="M0 0 C2.70195624 2.46700352 3.90789532 4.30864109 4.11352539 8.0847168 C4.10828857 8.86500244 4.10305176 9.64528809 4.09765625 10.44921875 C4.09282227 11.72055664 4.09282227 11.72055664 4.08789062 13.01757812 C4.07951172 13.89865234 4.07113281 14.77972656 4.0625 15.6875 C4.05798828 16.58017578 4.05347656 17.47285156 4.04882812 18.39257812 C4.03704983 20.59511987 4.02060164 22.79752599 4 25 C3.67 25 3.34 25 3 25 C2.95101563 23.73542969 2.90203125 22.47085937 2.8515625 21.16796875 C2.7765262 19.50779053 2.70097873 17.84763536 2.625 16.1875 C2.57859375 14.93743164 2.57859375 14.93743164 2.53125 13.66210938 C2.49257813 12.85966797 2.45390625 12.05722656 2.4140625 11.23046875 C2.3826416 10.49207764 2.3512207 9.75368652 2.31884766 8.99291992 C2.09165386 6.68650412 2.09165386 6.68650412 0 4 C0 2.68 0 1.36 0 0 Z " fill="#4535C3" transform="translate(290,239)"/>
<path d="M0 0 C1.32 0.33 2.64 0.66 4 1 C4 2.32 4 3.64 4 5 C5.98 5 7.96 5 10 5 C9.67 6.32 9.34 7.64 9 9 C6.5625 8.1875 6.5625 8.1875 4 7 C3.67 6.01 3.34 5.02 3 4 C2.34 4 1.68 4 1 4 C0.67 2.68 0.34 1.36 0 0 Z " fill="#3728A6" transform="translate(366,280)"/>
<path d="M0 0 C0.66 0.33 1.32 0.66 2 1 C1.04882866 2.1725131 0.08882991 3.33787015 -0.875 4.5 C-1.67550781 5.47453125 -1.67550781 5.47453125 -2.4921875 6.46875 C-2.98976563 6.9740625 -3.48734375 7.479375 -4 8 C-4.66 8 -5.32 8 -6 8 C-6 8.66 -6 9.32 -6 10 C-7.32 9.67 -8.64 9.34 -10 9 C-8.625 7.5 -8.625 7.5 -7 6 C-6.34 6 -5.68 6 -5 6 C-5 5.34 -5 4.68 -5 4 C-3.37373596 2.61767557 -1.7074998 1.28062485 0 0 Z " fill="#362796" transform="translate(51,201)"/>
<path d="M0 0 C2.97 0.33 5.94 0.66 9 1 C9 1.66 9 2.32 9 3 C9.99 3 10.98 3 12 3 C12 4.98 12 6.96 12 9 C11.01 9 10.02 9 9 9 C9.33 8.01 9.66 7.02 10 6 C9.01 5.34 8.02 4.68 7 4 C7 3.34 7 2.68 7 2 C4.69 1.67 2.38 1.34 0 1 C0 0.67 0 0.34 0 0 Z " fill="#322696" transform="translate(323,265)"/>
<path d="M0 0 C5.70629354 0.42797202 9.41078616 2.84345952 14 6 C13.34 6.66 12.68 7.32 12 8 C12 7.34 12 6.68 12 6 C9.03 5.505 9.03 5.505 6 5 C6 4.34 6 3.68 6 3 C5.195625 2.87625 4.39125 2.7525 3.5625 2.625 C2.716875 2.41875 1.87125 2.2125 1 2 C0.67 1.34 0.34 0.68 0 0 Z " fill="#312695" transform="translate(333,252)"/>
<path d="M0 0 C0.33 0 0.66 0 1 0 C1 3.96 1 7.92 1 12 C0.01 12.33 -0.98 12.66 -2 13 C-2.19294408 8.17639811 -1.75747614 4.50353262 0 0 Z " fill="#4534BC" transform="translate(41,280)"/>
<path d="M0 0 C1.32 0.66 2.64 1.32 4 2 C4 2.66 4 3.32 4 4 C-0.47058824 8 -0.47058824 8 -3 8 C-3 7.34 -3 6.68 -3 6 C-3.66 5.67 -4.32 5.34 -5 5 C-3.35 4.67 -1.7 4.34 0 4 C-0.33 3.01 -0.66 2.02 -1 1 C-0.67 0.67 -0.34 0.34 0 0 Z " fill="#4031BB" transform="translate(345,280)"/>
<path d="M0 0 C4.50621146 1.10529715 6.65094547 1.65094547 10 5 C5.71 4.67 1.42 4.34 -3 4 C-2.67 3.34 -2.34 2.68 -2 2 C-1.34 2 -0.68 2 0 2 C0 1.34 0 0.68 0 0 Z " fill="#352996" transform="translate(278,270)"/>
<path d="M0 0 C0.66 0.33 1.32 0.66 2 1 C0.1875 4 0.1875 4 -2 7 C-2.99 7 -3.98 7 -5 7 C-5.66 7.66 -6.32 8.32 -7 9 C-7.66 8.34 -8.32 7.68 -9 7 C-6.03 4.69 -3.06 2.38 0 0 Z " fill="#3529A2" transform="translate(67,188)"/>
<path d="M0 0 C1.65 0 3.3 0 5 0 C4.67 0.66 4.34 1.32 4 2 C3.34 2 2.68 2 2 2 C2 2.66 2 3.32 2 4 C-0.5 5.625 -0.5 5.625 -3 7 C-3 5.35 -3 3.7 -3 2 C-2.01 2 -1.02 2 0 2 C0 1.34 0 0.68 0 0 Z " fill="#3A2BAB" transform="translate(54,297)"/>
<path d="M0 0 C0.66 0.33 1.32 0.66 2 1 C0.1875 3.5 0.1875 3.5 -2 6 C-2.99 6 -3.98 6 -5 6 C-5.33 6.99 -5.66 7.98 -6 9 C-6.99 8.67 -7.98 8.34 -9 8 C-7.625 6.5 -7.625 6.5 -6 5 C-5.34 5 -4.68 5 -4 5 C-4 4.34 -4 3.68 -4 3 C-2 1.375 -2 1.375 0 0 Z " fill="#33248D" transform="translate(37,213)"/>
<path d="M0 0 C1.32 0.33 2.64 0.66 4 1 C2.78294994 2.01471171 1.55073116 3.0112461 0.3125 4 C-0.71423828 4.8353125 -0.71423828 4.8353125 -1.76171875 5.6875 C-4.38783056 7.22741897 -6.00603356 7.25168194 -9 7 C-7.68 6.67 -6.36 6.34 -5 6 C-5 5.34 -5 4.68 -5 4 C-4.01 4 -3.02 4 -2 4 C-2 3.34 -2 2.68 -2 2 C-1.34 2 -0.68 2 0 2 C0 1.34 0 0.68 0 0 Z " fill="#33258D" transform="translate(459,307)"/>
<path d="M0 0 C5.94 1.485 5.94 1.485 12 3 C12 3.33 12 3.66 12 4 C8.04 4 4.08 4 0 4 C-0.33 3.34 -0.66 2.68 -1 2 C-0.67 1.34 -0.34 0.68 0 0 Z " fill="#3F31AC" transform="translate(321,248)"/>
<path d="M0 0 C0.33 0.99 0.66 1.98 1 3 C1.66 3 2.32 3 3 3 C3 3.66 3 4.32 3 5 C3.66 5 4.32 5 5 5 C5.33 6.98 5.66 8.96 6 11 C3.66475218 8.74259377 1.81294927 6.7194239 0 4 C0 2.68 0 1.36 0 0 Z " fill="#372A98" transform="translate(233,271)"/>
<path d="M0 0 C2.64 0 5.28 0 8 0 C7.34 0.66 6.68 1.32 6 2 C5.01 2 4.02 2 3 2 C3 2.66 3 3.32 3 4 C2.34 4 1.68 4 1 4 C1 4.66 1 5.32 1 6 C0.34 5.67 -0.32 5.34 -1 5 C-0.67 3.35 -0.34 1.7 0 0 Z " fill="#342697" transform="translate(251,241)"/>
<path d="M0 0 C3.95820859 0.56545837 6.6659053 1.80902348 10 4 C9.67 4.66 9.34 5.32 9 6 C7.02 5.34 5.04 4.68 3 4 C3 3.34 3 2.68 3 2 C2.01 1.67 1.02 1.34 0 1 C0 0.67 0 0.34 0 0 Z " fill="#3B2CA1" transform="translate(274,227)"/>
<path d="M0 0 C0.66 0 1.32 0 2 0 C4.6875 2.75 4.6875 2.75 7 6 C6.64453125 8.203125 6.64453125 8.203125 6 10 C4.99723227 8.52270825 3.99785546 7.04311423 3 5.5625 C2.443125 4.73878906 1.88625 3.91507812 1.3125 3.06640625 C0 1 0 1 0 0 Z " fill="#302392" transform="translate(193,273)"/>
<path d="M0 0 C1.134375 0.020625 2.26875 0.04125 3.4375 0.0625 C-1.3125 4.9375 -1.3125 4.9375 -3.5625 6.0625 C-3.2325 4.7425 -2.9025 3.4225 -2.5625 2.0625 C-3.2225 1.7325 -3.8825 1.4025 -4.5625 1.0625 C-3.5625 0.0625 -3.5625 0.0625 0 0 Z " fill="#3C2AAB" transform="translate(82.5625,273.9375)"/>
<path d="M0 0 C3.08089673 2.77280706 4.68775452 5.06326356 6 9 C3.5625 7.875 3.5625 7.875 1 6 C0.1875 2.8125 0.1875 2.8125 0 0 Z " fill="#332691" transform="translate(170,210)"/>
<path d="M0 0 C0.66 0 1.32 0 2 0 C2 2.97 2 5.94 2 9 C-0.8290723 6.1709277 -1.37611108 5.61855575 -2 2 C-1.34 2 -0.68 2 0 2 C0 1.34 0 0.68 0 0 Z " fill="#34288D" transform="translate(301,274)"/>
<path d="M0 0 C0.66 0 1.32 0 2 0 C1.55149342 1.81495662 1.09090429 3.62693134 0.625 5.4375 C0.24214844 6.95150391 0.24214844 6.95150391 -0.1484375 8.49609375 C-1 11 -1 11 -3 12 C-2.69230293 10.18667846 -2.37870936 8.37435655 -2.0625 6.5625 C-1.80146484 5.04849609 -1.80146484 5.04849609 -1.53515625 3.50390625 C-1 1 -1 1 0 0 Z " fill="#2E2288" transform="translate(485,252)"/>
<path d="M0 0 C0 1.98 0 3.96 0 6 C-0.33 5.34 -0.66 4.68 -1 4 C-2.32 4.33 -3.64 4.66 -5 5 C-5 4.01 -5 3.02 -5 2 C-2 0 -2 0 0 0 Z " fill="#5038F7" transform="translate(307,275)"/>
<path d="M0 0 C0.99 0.33 1.98 0.66 3 1 C3.66 4.3 4.32 7.6 5 11 C2.77174356 8.77174356 2.30760631 7.34238372 1.375 4.375 C1.11460937 3.55773437 0.85421875 2.74046875 0.5859375 1.8984375 C0.39257812 1.27195312 0.19921875 0.64546875 0 0 Z " fill="#2C2185" transform="translate(448,271)"/>
<path d="M0 0 C0.66 0.99 1.32 1.98 2 3 C1.125 5.6875 1.125 5.6875 0 8 C-0.66 8 -1.32 8 -2 8 C-2.20086443 4.28400809 -2.1519437 3.22791555 0 0 Z " fill="#4230BC" transform="translate(236,238)"/>
<path d="M0 0 C0.66 0 1.32 0 2 0 C1.01 2.97 0.02 5.94 -1 9 C-1.33 9 -1.66 9 -2 9 C-2 6.69 -2 4.38 -2 2 C-1.34 2 -0.68 2 0 2 C0 1.34 0 0.68 0 0 Z " fill="#3729A2" transform="translate(489,241)"/>
<path d="M0 0 C3.67230705 3.07999946 4.56802365 5.2482602 5 10 C4.67 9.34 4.34 8.68 4 8 C3.34 8 2.68 8 2 8 C0.23537317 4.91190305 0 3.76687864 0 0 Z " fill="#3D2BAC" transform="translate(453,243)"/>
<path d="M0 0 C1.32 0 2.64 0 4 0 C4 0.66 4 1.32 4 2 C4.99 2.33 5.98 2.66 7 3 C6.67 4.32 6.34 5.64 6 7 C5.67 6.34 5.34 5.68 5 5 C4.34 5 3.68 5 3 5 C3 3.68 3 2.36 3 1 C2.01 0.67 1.02 0.34 0 0 Z " fill="#4533C7" transform="translate(271,241)"/>
<path d="M0 0 C0.66 0 1.32 0 2 0 C2.33 2.97 2.66 5.94 3 9 C2.34 8.67 1.68 8.34 1 8 C0.40644386 5.35139573 0.25790731 2.70802678 0 0 Z " fill="#372A9A" transform="translate(431,228)"/>
<path d="M0 0 C0.99 0 1.98 0 3 0 C3 1.65 3 3.3 3 5 C1.35 4.67 -0.3 4.34 -2 4 C-1.34 2.68 -0.68 1.36 0 0 Z " fill="#4C37D6" transform="translate(40,211)"/>
<path d="M0 0 C-0.33 0.99 -0.66 1.98 -1 3 C-2.9375 3.8125 -2.9375 3.8125 -5 4 C-5.66 3.34 -6.32 2.68 -7 2 C-4 0 -4 0 0 0 Z " fill="#4530C3" transform="translate(454,295)"/>
<path d="M0 0 C1.32 0 2.64 0 4 0 C4.103125 0.639375 4.20625 1.27875 4.3125 1.9375 C4.539375 2.618125 4.76625 3.29875 5 4 C5.99 4.33 6.98 4.66 8 5 C7.01 5.495 7.01 5.495 6 6 C3.97945196 4.35830472 1.97956942 2.69088222 0 1 C0 0.67 0 0.34 0 0 Z " fill="#2C2184" transform="translate(303,283)"/>
<path d="M0 0 C0.6875 1.625 0.6875 1.625 1 4 C-0.4375 7.25 -0.4375 7.25 -2 10 C-2.33 10 -2.66 10 -3 10 C-3 8.02 -3 6.04 -3 4 C-2.01 3.67 -1.02 3.34 0 3 C0 2.01 0 1.02 0 0 Z " fill="#2F2288" transform="translate(477,276)"/>
<path d="M0 0 C0.33 0.66 0.66 1.32 1 2 C1.66 2 2.32 2 3 2 C3.33 4.64 3.66 7.28 4 10 C2 9 2 9 0.875 6.6875 C0 4 0 4 0 0 Z " fill="#352998" transform="translate(440,250)"/>
<path d="M0 0 C-3.625 3 -3.625 3 -7 3 C-7.33 2.01 -7.66 1.02 -8 0 C-5.13822943 -1.43088528 -3.06624227 -0.59991697 0 0 Z " fill="#322696" transform="translate(342,244)"/>
<path d="M0 0 C1.65 0 3.3 0 5 0 C5 1.65 5 3.3 5 5 C4.01 4.01 3.02 3.02 2 2 C1.34 3.32 0.68 4.64 0 6 C0 4.02 0 2.04 0 0 Z " fill="#392BB1" transform="translate(168,239)"/>
<path d="M0 0 C4.875 4.625 4.875 4.625 6 8 C5.34 8 4.68 8 4 8 C4 7.34 4 6.68 4 6 C3.01 6 2.02 6 1 6 C0.67 4.02 0.34 2.04 0 0 Z " fill="#342998" transform="translate(176,219)"/>
</svg>
