<?xml version="1.0" encoding="UTF-8"?>
<svg version="1.1" xmlns="http://www.w3.org/2000/svg" width="1080" height="1080">
<path d="M0 0 C356.4 0 712.8 0 1080 0 C1080 356.4 1080 712.8 1080 1080 C723.6 1080 367.2 1080 0 1080 C0 723.6 0 367.2 0 0 Z " fill="#FEFEFE" transform="translate(0,0)"/>
<path d="M0 0 C1.69864699 3.39729397 -0.12372112 6.97638745 -1.078125 10.49609375 C-1.31672745 11.40026535 -1.5553299 12.30443695 -1.80116272 13.23600769 C-2.33014238 15.23886318 -2.86221512 17.24090352 -3.3968811 19.24224854 C-4.88335524 24.80965382 -6.34531965 30.38349138 -7.80859375 35.95703125 C-8.1313176 37.18452087 -8.45404144 38.4120105 -8.7865448 39.67669678 C-13.18637376 56.44159738 -17.41627507 73.25020327 -21.66282654 90.05443192 C-22.31477571 92.6340043 -22.96708059 95.21348647 -23.61950684 97.79293823 C-26.08181805 107.52808382 -28.54217386 117.26372107 -31 127 C-29.86288826 127.27712326 -29.86288826 127.27712326 -28.70280457 127.55984497 C-22.30793633 129.13552049 -15.97577785 130.82390579 -9.67578125 132.7421875 C-8.84523727 132.99243683 -8.0146933 133.24268616 -7.15898132 133.5005188 C-4.54267946 134.28936571 -1.92754626 135.08200187 0.6875 135.875 C4.12860642 136.9150564 7.57016248 137.95362081 11.01171875 138.9921875 C11.85269104 139.24628387 12.69366333 139.50038025 13.56011963 139.76217651 C19.779832 141.63917346 26.00896875 143.4823591 32.2434845 145.30950928 C37.6288521 146.88811074 43.00361895 148.49959889 48.375 150.125 C55.22258198 152.18932512 62.07974143 154.19057459 69 156 C69 156.66 69 157.32 69 158 C67.53309441 159.3327188 65.99677499 160.58913869 64.4375 161.8125 C59.76432355 165.55104116 55.19793838 169.37930425 50.6875 173.3125 C49.40111368 174.43237439 48.11465491 175.55216557 46.828125 176.671875 C46.19068359 177.22681641 45.55324219 177.78175781 44.89648438 178.35351562 C40.20215479 182.42902525 35.47101259 186.46183847 30.74707031 190.50292969 C28.96164376 192.03286759 27.17963855 193.56670801 25.3984375 195.1015625 C20.06449936 199.69377135 14.71957787 204.25644957 9.25 208.6875 C4.86848205 212.24267904 0.68289319 215.96769537 -3.48828125 219.765625 C-6.00151232 222.00134533 -8.57311479 224.13377682 -11.1875 226.25 C-17.62548906 231.46386438 -23.85163566 236.91041253 -30.09912109 242.34912109 C-38.04526132 249.25019998 -46.06453874 256.06634968 -54.10595703 262.85595703 C-58.08624131 266.21925507 -62.04661042 269.6051467 -66 273 C-70.4849792 276.85133975 -74.98299736 280.68626796 -79.5 284.5 C-85.75112561 289.77904473 -91.96489906 295.10088589 -98.17236328 300.43115234 C-101.40494268 303.2060061 -104.64014577 305.97779891 -107.875 308.75 C-109.05990682 309.76561219 -110.24480371 310.78123595 -111.4296875 311.796875 C-112.27789062 312.52390625 -113.12609375 313.2509375 -114 314 C-115.59398353 309.985154 -114.33238931 307.16384934 -113 303.1875 C-112.52730372 301.74653333 -112.05603355 300.30509831 -111.5859375 298.86328125 C-111.3290918 298.08291504 -111.07224609 297.30254883 -110.80761719 296.49853516 C-109.34639443 291.97793247 -107.99446803 287.42405553 -106.625 282.875 C-104.27980001 275.12184843 -101.85799622 267.39753551 -99.375 259.6875 C-97.05103718 252.45491467 -94.89566754 245.20151046 -92.90478516 237.87084961 C-91.03204341 231.01240302 -88.96719739 224.21848143 -86.88256836 217.421875 C-84.24204034 208.81211001 -81.64679578 200.18926918 -79.0625 191.5625 C-78.65657836 190.20800696 -78.25065395 188.85351475 -77.84472656 187.49902344 C-76.89609735 184.33279799 -75.94783551 181.16646313 -75 178 C-78.25481394 176.62915236 -81.39491518 175.57882746 -84.83984375 174.80859375 C-85.80003418 174.59090332 -86.76022461 174.37321289 -87.74951172 174.14892578 C-88.80154785 173.91415527 -89.85358398 173.67938477 -90.9375 173.4375 C-98.93514756 171.62479138 -106.92610437 169.79124667 -114.90234375 167.88671875 C-116.05495445 167.6115593 -116.05495445 167.6115593 -117.23085022 167.33084106 C-118.81202014 166.95326199 -120.39318155 166.57564726 -121.97433472 166.19799805 C-141.27131516 161.59213642 -160.62034339 157.24334972 -180 153 C-176.47092497 149.4360204 -172.85030121 146.08593496 -169 142.875 C-167.8436987 141.90370691 -166.68745018 140.93235097 -165.53125 139.9609375 C-164.65146484 139.22375488 -164.65146484 139.22375488 -163.75390625 138.47167969 C-160.9950224 136.1567365 -158.24786247 133.82800378 -155.5 131.5 C-154.41672848 130.58326029 -153.333395 129.66659379 -152.25 128.75 C-151.71375 128.29625 -151.1775 127.8425 -150.625 127.375 C-145.75 123.25 -145.75 123.25 -144.12524414 121.87524414 C-143.04104762 120.95782203 -141.95690055 120.04034148 -140.87280273 119.12280273 C-138.17807689 116.84221456 -135.48252188 114.56262185 -132.78515625 112.28515625 C-131.71086274 111.37769267 -130.63664413 110.4701404 -129.5625 109.5625 C-129.03027832 109.11277832 -128.49805664 108.66305664 -127.94970703 108.19970703 C-124.50809418 105.28741403 -121.08327429 102.35630511 -117.66577148 99.41577148 C-112.11757088 94.6421254 -106.51742369 89.95110371 -100.8359375 85.3359375 C-96.34735376 81.63872941 -91.95085124 77.83565815 -87.54296875 74.04296875 C-82.59441284 69.78648075 -77.6052146 65.57832994 -72.61767578 61.36767578 C-70.97091021 59.97540583 -69.32689933 58.57994527 -67.68359375 57.18359375 C-62.69973752 52.95146367 -57.70440728 48.74262602 -52.625 44.625 C-47.50266476 40.45843577 -42.52582622 36.13798719 -37.54956055 31.79956055 C-33.04552363 27.88178699 -28.46275155 24.07828675 -23.82421875 20.3203125 C-18.71548069 16.12309202 -13.7204308 11.79209625 -8.71289062 7.47509766 C-5.81323468 4.97798802 -2.90648342 2.48915627 0 0 Z " fill="#4F39F6" transform="translate(180,379)"/>
<path d="M0 0 C9.24 0 18.48 0 28 0 C36.75360288 9.94409287 36.75360288 9.94409287 38.671875 14.171875 C40.38177251 17.75256946 42.17631375 20.93598473 44.5625 24.125 C45.07941406 24.85976563 45.59632813 25.59453125 46.12890625 26.3515625 C47.05509766 27.66253906 47.05509766 27.66253906 48 29 C48.94665216 30.34111931 49.8932627 31.682268 50.83984375 33.0234375 C52.42556871 35.26990187 54.01147106 37.51624001 55.59790039 39.76220703 C58.23965219 43.50279183 60.87733656 47.24599155 63.5 51 C66.50583226 55.30232377 69.53345033 59.58901435 72.5625 63.875 C78.29069158 71.9821027 83.98685438 80.11140527 89.67578125 88.24609375 C90.21799316 89.01937012 90.76020508 89.79264648 91.31884766 90.58935547 C92.49839941 92.28074293 93.66921155 93.97824294 94.83349609 95.68017578 C95.43887207 96.56044434 96.04424805 97.44071289 96.66796875 98.34765625 C97.21090576 99.14308838 97.75384277 99.93852051 98.31323242 100.75805664 C100.23618149 103.42274455 100.23618149 103.42274455 104 107 C104 71.69 104 36.38 104 0 C115.55 0 127.1 0 139 0 C139 58.74 139 117.48 139 178 C111 178 111 178 106 173.0625 C105.25508488 171.35640409 104.51365528 169.64737098 103.84960938 167.90820312 C102.20032528 164.20394896 99.64427682 161.06331462 97.25 157.8125 C96.20829721 156.34822892 95.16925621 154.88206077 94.1328125 153.4140625 C93.35212402 152.31433105 93.35212402 152.31433105 92.55566406 151.19238281 C90.07358907 147.69441773 87.59881149 144.19131215 85.125 140.6875 C84.63402832 139.99221191 84.14305664 139.29692383 83.63720703 138.58056641 C77.9959431 130.58589176 72.38931695 122.56699968 66.78222656 114.54833984 C63.85623254 110.36456921 60.92798955 106.18237433 58 102 C51 92 44 82 37 72 C36.67 106.98 36.34 141.96 36 178 C24.12 178 12.24 178 0 178 C0 119.26 0 60.52 0 0 Z " fill="#513BF6" transform="translate(275,446)"/>
<path d="M0 0 C1.08539063 -0.01160156 2.17078125 -0.02320313 3.2890625 -0.03515625 C20.34087163 0.02588841 34.26651166 5.94159612 46.56640625 17.77734375 C59.21130997 31.27471289 65.61475179 47.50062858 65.25 65.875 C65.24484375 66.94492187 65.2396875 68.01484375 65.234375 69.1171875 C65.15588474 76.90734578 65.15588474 76.90734578 64 80.375 C32.32 80.375 0.64 80.375 -32 80.375 C-26.56199549 91.25100903 -23.71744002 96.90939999 -13 101.375 C-2.2854791 104.93332798 9.83915035 104.73256096 20.4140625 100.734375 C23.90776742 98.89780504 26.51855244 96.55956838 29.18359375 93.66796875 C31 92.375 31 92.375 33.2980957 92.63061523 C38.19185851 93.97886524 42.37590947 96.72943771 46.75 99.25 C47.72066406 99.79269531 48.69132813 100.33539062 49.69140625 100.89453125 C50.61308594 101.42175781 51.53476562 101.94898438 52.484375 102.4921875 C53.32709961 102.97284668 54.16982422 103.45350586 55.03808594 103.94873047 C57 105.375 57 105.375 58 108.375 C56.09172255 111.38420675 53.4855051 113.83486841 51 116.375 C50.35804688 117.05304688 49.71609375 117.73109375 49.0546875 118.4296875 C35.17982557 131.98801265 17.75438966 133.78859379 -0.77929688 133.74072266 C-19.0113927 133.46938207 -34.60892398 128.27226194 -48 115.375 C-48 114.715 -48 114.055 -48 113.375 C-48.66 113.375 -49.32 113.375 -50 113.375 C-64.34216798 96.158763 -67.17097451 77.12565236 -66 55.375 C-64.41647151 41.0224736 -57.18097466 27.53523948 -47 17.375 C-46.34 17.375 -45.68 17.375 -45 17.375 C-45 16.715 -45 16.055 -45 15.375 C-31.79390891 4.22006774 -17.07139079 -0.1824733 0 0 Z " fill="#503AF6" transform="translate(505,493.625)"/>
<path d="M0 0 C11.88 0 23.76 0 36 0 C40.09366437 9.8247945 44.0424478 19.6337008 47.6953125 29.625 C47.9938916 30.440896 48.2924707 31.25679199 48.60009766 32.09741211 C49.17803965 33.68055924 49.75345421 35.26463261 50.32568359 36.84985352 C51.908852 41.19402667 53.59902297 45.47325601 55.39453125 49.734375 C58.65770833 57.48951736 61.58298345 65.37019258 64.51367188 73.25585938 C65.14692383 74.92938477 65.14692383 74.92938477 65.79296875 76.63671875 C66.1696167 77.64436279 66.54626465 78.65200684 66.93432617 79.69018555 C67.77691925 82.14879503 67.77691925 82.14879503 70 83 C70.226875 81.845 70.45375 80.69 70.6875 79.5 C74.0477913 64.47990274 79.6820613 49.82793379 84.5625 35.25 C85.22865834 33.2565581 85.89467468 31.26306875 86.56054688 29.26953125 C87.52080178 26.39464961 88.48152795 23.51993237 89.44424438 20.64587402 C90.74625215 16.75870895 92.04609147 12.87114326 93.31982422 8.97460938 C93.67705566 7.88470703 94.03428711 6.79480469 94.40234375 5.671875 C94.69488037 4.77049805 94.98741699 3.86912109 95.28881836 2.94042969 C96 1 96 1 97 0 C99.59359322 -0.08851529 102.16039691 -0.11525945 104.75390625 -0.09765625 C105.52935287 -0.0962413 106.3047995 -0.09482635 107.10374451 -0.09336853 C109.59003494 -0.08775345 112.0762366 -0.07519846 114.5625 -0.0625 C116.24413933 -0.05748694 117.92578006 -0.0529237 119.60742188 -0.04882812 C123.73831566 -0.03777913 127.86914276 -0.02050445 132 0 C130.08471842 5.81304482 128.10238913 11.59620349 126.03125 17.35546875 C125.75446411 18.12735031 125.47767822 18.89923187 125.19250488 19.69450378 C124.29618268 22.19259448 123.39819008 24.69008034 122.5 27.1875 C122.19175293 28.0457135 121.88350586 28.903927 121.56591797 29.78814697 C116.9698396 42.58323723 112.31917997 55.35730591 107.62304688 68.1159668 C105.37452974 74.23027467 103.14702495 80.34931751 101 86.5 C98.22574696 94.4457266 95.33253447 102.34770312 92.4375 110.25 C92.20538818 110.88462158 91.97327637 111.51924316 91.73413086 112.1730957 C90.16799749 116.4531945 88.58848373 120.72814874 87 125 C86.56413574 126.1761084 86.12827148 127.3522168 85.67919922 128.56396484 C78.85512945 146.69145386 68.87769378 163.70080606 50.87890625 172.53125 C42.75314222 176.02096639 35.42254729 178.3357605 26.5625 178.125 C25.83095703 178.11597656 25.09941406 178.10695313 24.34570312 178.09765625 C22.56365702 178.07436153 20.78178241 178.0385019 19 178 C18.97534378 173.74585377 18.95716101 169.49174502 18.94506836 165.23754883 C18.94002899 163.78929927 18.93319747 162.34105483 18.92456055 160.89282227 C18.91247753 158.81525412 18.90676789 156.73775303 18.90234375 154.66015625 C18.89710693 153.40855713 18.89187012 152.15695801 18.88647461 150.86743164 C19 148 19 148 20 147 C21.84984397 146.70106521 23.70523771 146.43621973 25.5625 146.1875 C35.43335809 144.5618492 41.12101456 141.16525756 47 133 C50.25627896 128.06688731 50.25627896 128.06688731 50.72949219 122.34594727 C49.88433374 118.46947589 48.46853545 115.01462441 46.859375 111.41015625 C46.54088089 110.68147339 46.22238678 109.95279053 45.89424133 109.20202637 C45.20883454 107.63546501 44.5204506 106.07020346 43.82937622 104.50613403 C41.99072484 100.34355291 40.1748696 96.1710217 38.35546875 92 C37.98663071 91.15611221 37.61779266 90.31222443 37.23777771 89.44276428 C33.77534275 81.5120588 30.39996479 73.54647994 27.0625 65.5625 C26.79699341 64.92817047 26.53148682 64.29384094 26.25793457 63.64028931 C22.41652823 54.45811464 18.64328854 45.24888611 14.89331055 36.02905273 C12.79036317 30.87641275 10.6083596 25.77780504 8.26171875 20.73046875 C6.53033416 16.98360242 4.85493399 13.21318386 3.1875 9.4375 C2.87280762 8.73318848 2.55811523 8.02887695 2.23388672 7.30322266 C0 2.2307228 0 2.2307228 0 0 Z " fill="#503AF6" transform="translate(846,497)"/>
<path d="M0 0 C1.73262085 0.01244751 1.73262085 0.01244751 3.50024414 0.02514648 C19.1220015 0.33517642 30.83797758 5.06654626 42.25 16 C45.39393359 19.28453885 47.61969146 22.19869781 49.25 26.4375 C43.56341172 30.56878208 37.5492816 34.03742694 31.375 37.375 C30.62549072 37.7887085 29.87598145 38.20241699 29.10375977 38.62866211 C28.39147217 39.00772705 27.67918457 39.38679199 26.9453125 39.77734375 C26.30609863 40.12144287 25.66688477 40.46554199 25.00830078 40.82006836 C23.25 41.4375 23.25 41.4375 20.25 40.4375 C18.73013943 38.77714812 17.40403187 37.01843831 16.04296875 35.2265625 C11.72085277 30.91386289 7.19200005 30.00651535 1.25 30 C-4.3798142 30.07819905 -4.3798142 30.07819905 -9.5625 32 C-12.46933762 35.23904764 -12.97838498 37.09818538 -12.75 41.4375 C-7.23638805 49.70791792 3.90926976 51.68104567 13 53.75 C25.38974609 56.61353664 39.81368775 61.91604944 46.95703125 73.11328125 C52.80529705 83.45389174 53.91770094 93.44596097 51.1875 105.1875 C47.91225424 115.49845888 41.45866416 122.08961119 32.25 127.4375 C31.56421875 127.83710937 30.8784375 128.23671875 30.171875 128.6484375 C14.67159261 136.51690146 -6.1876363 136.26574167 -22.50390625 131.66015625 C-34.46583446 127.2984516 -44.11337151 118.89870184 -51 108.33203125 C-51.98621479 105.84081159 -51.76935659 104.90864992 -50.75 102.4375 C-48.58862305 100.8059082 -48.58862305 100.8059082 -45.76171875 99.23828125 C-44.23708008 98.38459961 -44.23708008 98.38459961 -42.68164062 97.51367188 C-41.61107422 96.93166016 -40.54050781 96.34964844 -39.4375 95.75 C-38.37853516 95.15638672 -37.31957031 94.56277344 -36.22851562 93.95117188 C-27.65232644 89.19986555 -27.65232644 89.19986555 -23.75 88.4375 C-23.4096875 89.02917969 -23.069375 89.62085938 -22.71875 90.23046875 C-18.91868129 96.42579353 -14.95656324 100.70570321 -7.9296875 103.04296875 C0.74307486 104.61276982 8.84989046 104.37090636 16.25 99.4375 C17.74498913 96.44752175 17.36577446 93.73707225 17.25 90.4375 C16.92 89.4475 16.59 88.4575 16.25 87.4375 C14.10475809 86.31465864 14.10475809 86.31465864 11.25 85.4375 C10.63801758 85.22786621 10.02603516 85.01823242 9.39550781 84.80224609 C7.22637791 84.06279355 5.05130837 83.34303607 2.875 82.625 C1.6845105 82.22752563 1.6845105 82.22752563 0.4699707 81.82202148 C-3.27927045 80.57227443 -7.0311264 79.34155199 -10.80859375 78.1796875 C-23.3163744 74.24904259 -36.06474362 69.52518603 -43.27734375 57.99609375 C-48.17561762 48.24025189 -48.78353975 36.26279888 -45.67578125 25.83203125 C-39.95593524 13.46776138 -30.15888788 6.5702006 -17.69921875 1.796875 C-11.85873346 -0.08309389 -6.08875936 -0.05596529 0 0 Z " fill="#503BF6" transform="translate(631.75,493.5625)"/>
<path d="M0 0 C1.65 0 3.3 0 5 0 C5 11.55 5 23.1 5 35 C14.57 35 24.14 35 34 35 C34 45.23 34 55.46 34 66 C24.76 66.33 15.52 66.66 6 67 C5.91599853 74.32212773 5.83587802 81.64249966 5.79299927 88.96469116 C5.7719203 92.37478354 5.74377674 95.78447497 5.69824219 99.19433594 C5.6462665 103.11127806 5.62701731 107.02805935 5.609375 110.9453125 C5.58872986 112.16115021 5.56808472 113.37698792 5.54681396 114.62966919 C5.54316434 123.11773815 5.54316434 123.11773815 10 130 C12.46120841 131.23060421 14.25776866 131.2057723 17.0078125 131.31640625 C17.8961377 131.35451416 18.78446289 131.39262207 19.69970703 131.43188477 C20.83005371 131.47498779 21.96040039 131.51809082 23.125 131.5625 C28.508125 131.7790625 28.508125 131.7790625 34 132 C34 141.9 34 151.8 34 162 C18.45530327 164.22067096 -0.67010147 165.60574576 -14 156 C-21.4330879 150.38388914 -25.16673939 142.02568137 -27 133 C-27.11490045 130.8310643 -27.17630989 128.65908793 -27.20532227 126.48730469 C-27.21522186 125.84298492 -27.22512146 125.19866516 -27.23532104 124.53482056 C-27.26680429 122.41387555 -27.29164103 120.29290819 -27.31640625 118.171875 C-27.33698718 116.69784985 -27.35798395 115.22383045 -27.37937927 113.74981689 C-27.4344824 109.87667509 -27.48394334 106.00348105 -27.53222656 102.13024902 C-27.58252763 98.17532726 -27.63816871 94.22048102 -27.69335938 90.265625 C-27.80079707 82.51047893 -27.90178006 74.7552693 -28 67 C-35.26 66.67 -42.52 66.34 -50 66 C-50 55.77 -50 45.54 -50 35 C-42.74 34.67 -35.48 34.34 -28 34 C-27.67 25.75 -27.34 17.5 -27 9 C-16.90317195 5.63439065 -16.90317195 5.63439065 -13.4375 4.6484375 C-12.70402344 4.43703125 -11.97054687 4.225625 -11.21484375 4.0078125 C-9.70732571 3.57709306 -8.19950069 3.1474469 -6.69140625 2.71875 C-3.05483534 1.91274688 -3.05483534 1.91274688 0 0 Z " fill="#4F39F6" transform="translate(740,462)"/>
<path d="M0 0 C10.89 0 21.78 0 33 0 C33 61.05 33 122.1 33 185 C22.11 185 11.22 185 0 185 C0 123.95 0 62.9 0 0 Z " fill="#4F39F6" transform="translate(797,439)"/>
<path d="M0 0 C5.88457024 4.28562047 9.52742279 10.19756409 12 17 C12 18.32 12 19.64 12 21 C-9.12 21 -30.24 21 -52 21 C-50.66607038 11.66249263 -47.45082595 6.45103686 -40.13671875 0.54296875 C-28.36040088 -7.96095366 -12.27614378 -7.49891574 0 0 Z " fill="#FAFAFE" transform="translate(525,528)"/>
</svg>
